<?xml version="1.0" encoding="UTF-8" standalone="no"?>
<!-- Created with Inkscape (http://www.inkscape.org/) -->

<svg
   xmlns:dc="http://purl.org/dc/elements/1.1/"
   xmlns:cc="http://creativecommons.org/ns#"
   xmlns:rdf="http://www.w3.org/1999/02/22-rdf-syntax-ns#"
   xmlns:svg="http://www.w3.org/2000/svg"
   xmlns="http://www.w3.org/2000/svg"
   xmlns:sodipodi="http://sodipodi.sourceforge.net/DTD/sodipodi-0.dtd"
   xmlns:inkscape="http://www.inkscape.org/namespaces/inkscape"
   width="240px"
   height="240px"
   viewBox="0 0 240 240"
   version="1.1"
   id="SVGRoot"
   inkscape:version="0.92.5 (2060ec1f9f, 2020-04-08)"
   sodipodi:docname="gold.svg">
  <defs
     id="defs1338" />
  <sodipodi:namedview
     id="base"
     pagecolor="#ffffff"
     bordercolor="#666666"
     borderopacity="1.0"
     inkscape:pageopacity="0.0"
     inkscape:pageshadow="2"
     inkscape:zoom="1.4"
     inkscape:cx="189.23168"
     inkscape:cy="98.706026"
     inkscape:document-units="px"
     inkscape:current-layer="layer1"
     showgrid="false"
     inkscape:window-width="1366"
     inkscape:window-height="705"
     inkscape:window-x="-8"
     inkscape:window-y="-8"
     inkscape:window-maximized="1" />
  <metadata
     id="metadata1341">
    <rdf:RDF>
      <cc:Work
         rdf:about="">
        <dc:format>image/svg+xml</dc:format>
        <dc:type
           rdf:resource="http://purl.org/dc/dcmitype/StillImage" />
        <dc:title></dc:title>
      </cc:Work>
    </rdf:RDF>
  </metadata>
  <g
     inkscape:label="Layer 1"
     inkscape:groupmode="layer"
     id="layer1">
    <rect
       rx="35.714283"
       style="opacity:1;fill:#8c2628;fill-opacity:1;stroke:#8e9795;stroke-width:4.5670166;stroke-linecap:square;stroke-linejoin:bevel;stroke-miterlimit:4;stroke-dasharray:none;stroke-dashoffset:0;stroke-opacity:1;paint-order:markers fill stroke"
       id="rect1288-6"
       width="234.02414"
       height="234.02414"
       x="3.3977635"
       y="2.6835914"
       ry="35.714283" />
    <path
       inkscape:connector-curvature="0"
       id="path1266-7"
       d="m 227.07141,105.60147 c -0.15455,0.20614 -0.33124,0.39748 -0.46383,0.61838 -0.0264,0.044 0.0234,0.10851 0,0.15455 -0.0324,0.0652 -0.13141,0.0854 -0.15455,0.15455 -0.0324,0.0979 0.0324,0.21146 0,0.30912 -0.0234,0.0692 -0.12193,0.0895 -0.15455,0.15455 -0.0234,0.046 0,0.10295 0,0.15455 -0.0514,0.10319 -0.0907,0.21331 -0.15455,0.30919 -0.11892,0.17838 -0.34482,0.28538 -0.46376,0.46376 -0.0639,0.0958 -0.0907,0.21332 -0.15455,0.30919 -0.11892,0.17838 -0.34489,0.28539 -0.46376,0.46377 -0.34061,0.078 -0.0817,0.318 -0.15455,0.46376 -0.0324,0.0652 -0.12193,0.0895 -0.15455,0.15455 -0.0234,0.0458 0.0361,0.11822 0,0.15455 -0.0814,0.0814 -0.24529,0.0588 -0.30919,0.15455 -0.0569,0.0858 0.0458,0.21701 0,0.30919 -0.046,0.0921 -0.23629,-0.0729 -0.30919,0 0,0 0,0.4586 0,0.46376 -0.0282,0.11175 -0.12679,0.19735 -0.15455,0.30919 -0.0319,0.12817 0.0509,0.67183 0,0.77295 -0.0234,0.0458 -0.10319,0 -0.15455,0 -0.0514,0.0514 -0.13165,0.0854 -0.15455,0.15455 -0.0652,0.1955 0.0502,0.41842 0,0.61841 -0.0282,0.11174 -0.11823,0.19989 -0.15455,0.30919 -0.0301,0.0905 0,1.06488 0,1.23669 0,0.0435 0.0116,0.74873 0,0.77295 -0.0234,0.0458 -0.11822,-0.0368 -0.15455,0 -0.007,0.007 0,0.71486 0,0.77291 0,0.66993 0,1.33979 0,2.00965 0,0.15779 0.025,1.00704 0,1.08214 -0.0234,0.0692 -0.13164,0.0854 -0.15455,0.15455 -0.0324,0.0979 0.0252,0.20915 0,0.30919 -0.18671,0.74651 -0.0733,-0.007 -0.30919,0.46376 -0.0606,0.12078 -0.17398,0.63791 -0.30914,0.77296 -0.0368,0.0368 -0.13165,-0.0458 -0.15455,0 -0.0294,0.0581 0.007,0.90506 0,0.92757 -0.0312,0.12355 -0.42062,0.33436 -0.46376,0.46376 -0.0324,0.0979 0.0569,0.2235 0,0.30915 -0.0639,0.096 -0.21332,0.0907 -0.30919,0.15455 -0.0606,0.0405 -0.11407,0.0939 -0.15455,0.15455 -0.34059,0.078 -0.0817,0.318 -0.15455,0.46376 -0.0324,0.0652 -0.12193,0.0893 -0.15455,0.15455 -0.22743,0.45488 0.3581,-0.2036 -0.15455,0.30919 -0.10296,0.10295 -0.19249,0.22164 -0.30919,0.30914 -0.0921,0.0692 -0.24529,0.0588 -0.30919,0.15455 -0.0925,0.13859 0.0551,0.45354 0,0.61831 -0.0368,0.10944 -0.11823,0.1999 -0.15455,0.30922 -0.0162,0.049 0.0231,0.10851 0,0.15455 -0.0324,0.0652 -0.12193,0.0895 -0.15455,0.15455 -0.0231,0.0458 0.0234,0.1085 0,0.15454 -0.0324,0.0653 -0.13164,0.0854 -0.15455,0.15455 -0.0324,0.0979 0.0569,0.2235 0,0.30919 -0.0639,0.0958 -0.24527,0.0588 -0.30919,0.15455 -0.0569,0.0856 0.046,0.21702 0,0.30912 -0.0234,0.0458 -0.11823,-0.0368 -0.15455,0 -0.0361,0.0368 0.0231,0.10851 0,0.15455 -0.0324,0.0653 -0.13164,0.0854 -0.15455,0.15455 -0.0324,0.0979 0.046,0.21702 0,0.30919 -0.0231,0.0458 -0.11822,-0.0361 -0.15455,0 -0.0814,0.0814 -0.0588,0.24529 -0.15455,0.30919 -0.0858,0.0569 -0.21146,-0.0324 -0.30919,0 -0.35761,0.11916 -0.0368,0.13257 -0.15455,0.30915 -0.0807,0.12123 -0.18786,0.22835 -0.30919,0.30919 -0.2399,0.15987 -0.10064,-0.26262 -0.30919,0.15455 -0.046,0.0921 0.0458,0.21701 0,0.30914 -0.32168,0.64337 0.009,-0.16519 -0.30919,0.15455 -0.73892,0.73892 0.44209,0.007 -0.46376,0.30915 -0.0692,0.0231 -0.10296,0.10295 -0.15455,0.15455 -0.0514,0.0514 -0.12193,0.0893 -0.15455,0.15454 -0.10666,0.21332 0.18717,0.13836 -0.15455,0.30919 -0.0458,0.0231 -0.10851,-0.0234 -0.15455,0 -0.0652,0.0324 -0.0939,0.11407 -0.15455,0.15455 -0.0986,0.0657 -0.82725,0.43871 -0.92752,0.46381 -0.1217,0.0305 -0.76678,0 -0.9275,0 l -7.88522,12.05911 c -0.30917,0.61834 -0.54405,1.27984 -0.92753,1.85505 -0.0571,0.0858 -0.21702,-0.046 -0.30919,0 -0.13026,0.0653 -0.22835,0.18787 -0.30917,0.30917 -0.12794,0.1918 -0.20614,0.41224 -0.30916,0.61836 -0.30919,0.61838 -0.55638,1.27183 -0.92755,1.85509 -0.35429,0.55671 -0.81425,1.03893 -1.23672,1.54587 -0.0932,0.11197 -0.20614,0.20614 -0.30917,0.30919 -0.20614,0.10295 -0.45541,0.14622 -0.61836,0.30919 -0.32591,0.32589 -0.29246,0.9108 -0.61835,1.23671 -0.16288,0.16288 -0.49053,0.11753 -0.61836,0.30917 -0.11429,0.17144 0.0652,0.42281 0,0.61838 -0.046,0.13836 -0.20614,0.20614 -0.30919,0.30915 -0.10296,0.10318 -0.17884,0.24399 -0.30917,0.30919 -0.0921,0.046 -0.23631,-0.0729 -0.30919,0 -0.0729,0.0729 0.046,0.21701 0,0.30916 -0.29001,0.58007 -0.39662,0.13211 -0.92753,0.3092 -0.27654,0.0921 -0.37582,0.45668 -0.61835,0.61833 -0.1918,0.12794 -0.45542,0.14622 -0.61836,0.30921 -0.18949,0.18949 -0.2632,0.80914 -0.61836,0.92751 -1.81167,0.6039 0.55036,-0.85951 -0.92753,0.61836 -0.0729,0.0729 -0.21146,-0.0326 -0.30919,0 -0.21863,0.0729 -0.39972,0.23631 -0.61836,0.30919 -0.0979,0.0326 -0.21701,-0.046 -0.30916,0 -0.13026,0.0652 -0.17884,0.24399 -0.30919,0.30916 -0.0921,0.046 -0.23629,-0.0729 -0.30917,0 -0.0729,0.0729 0.0729,0.23632 0,0.30919 -0.16288,0.16288 -0.42661,0.18139 -0.61836,0.30917 -0.24253,0.16172 -0.35764,0.48801 -0.61836,0.61838 -0.0921,0.046 -0.23631,-0.0729 -0.30919,0 -0.16288,0.16288 -0.14622,0.45539 -0.30917,0.61834 -0.11105,0.11105 -1.03668,-0.0999 -1.23671,0 -0.0921,0.046 0,0.20614 0,0.30921 -0.10296,0.10296 -0.17098,0.26308 -0.30917,0.30917 -1.40748,0 -0.0185,-0.14576 -0.92755,0.30917 -0.0921,0.046 -0.23629,-0.0729 -0.30917,0 -0.16287,0.16287 -0.11753,0.49051 -0.30919,0.61838 -0.35673,0.23779 -1.18915,-0.23786 -1.54588,0 -0.1918,0.12794 -0.14622,0.45536 -0.30919,0.61831 -0.0729,0.0729 -0.23629,-0.0729 -0.30917,0 -0.14576,0.14576 0.0921,0.43401 0,0.61838 -0.29003,0.58005 -0.39662,0.13211 -0.92755,0.30917 -0.13835,0.046 -0.17884,0.24399 -0.30917,0.30917 -0.0921,0.046 -0.23631,-0.0729 -0.30916,0 -0.0729,0.0729 0.0858,0.25204 0,0.30921 -0.50282,0.16751 -1.09098,0.31504 -1.54591,0.61834 -0.56572,0.37714 -0.0308,0.39416 -0.92753,0.61838 -0.23513,0.0588 -1.28699,0 -1.5459,0 -0.20615,0 -0.42281,-0.0653 -0.61836,0 -0.13835,0.046 -0.17884,0.24399 -0.30917,0.30914 -0.18439,0.0921 -0.43401,-0.0921 -0.61836,0 -0.13025,0.0652 -0.17097,0.2631 -0.30919,0.30919 -0.39107,0.13026 -0.86799,-0.18439 -1.23669,0 -0.0923,0.046 0,0.20614 0,0.30917 -0.10319,0.10319 -0.17098,0.26313 -0.30919,0.30919 -0.39109,0.13026 -0.868,-0.18439 -1.23672,0 -0.0921,0.046 0.0921,0.26308 0,0.30917 -0.24621,0.12308 -1.82937,-0.11152 -2.16424,0 -0.13835,0.046 -0.17098,0.26308 -0.30919,0.30919 -1.40746,0 -0.0185,-0.14576 -0.92753,0.30919 -0.16357,0.0817 -1.08607,-0.0377 -1.23671,0 -0.2235,0.056 -0.4044,0.22349 -0.61836,0.30917 -0.3026,0.121 -0.62495,0.18809 -0.92753,0.30916 -0.21401,0.0856 -0.39238,0.26401 -0.61835,0.30922 -2.68236,0.53645 1.20016,-0.81231 -2.16427,0.30917 -0.21864,0.0729 -0.42661,0.18138 -0.61836,0.30914 -0.12123,0.0807 -0.16773,0.27384 -0.30917,0.30919 -0.29995,0.075 -0.62437,-0.0606 -0.92754,0 -0.22604,0.0451 -0.40438,0.22349 -0.61834,0.30917 -0.3026,0.121 -0.61836,0.20614 -0.92755,0.30919 -0.30917,0.10295 -0.60797,0.24526 -0.92752,0.30917 -0.20221,0.0405 -0.42282,-0.0652 -0.61836,0 -0.13836,0.046 -0.20614,0.20614 -0.30919,0.30919 -0.20615,0.10295 -0.3948,0.25329 -0.61836,0.30919 -1.41498,0.35375 0.32147,-0.62449 -1.54589,0.30916 -0.13025,0.0652 -0.16773,0.27382 -0.30919,0.30917 -0.29993,0.075 -0.62435,-0.0606 -0.92752,0 -0.22604,0.0451 -0.3948,0.2533 -0.61836,0.30922 -0.1999,0.05 -0.41224,0 -0.61836,0 -0.57199,0 -0.87755,-0.025 -1.54588,0.30916 -0.26072,0.13049 -0.35764,0.48799 -0.61836,0.61834 -0.18439,0.0921 -0.41624,-0.0405 -0.61836,0 -0.85899,-0.60142 -0.78959,0.50661 -1.23671,0.61836 -0.29996,0.075 -0.62759,-0.075 -0.92755,0 -0.14136,0.0354 -0.17098,0.2631 -0.30917,0.30919 -0.92753,0.30917 -0.30917,-0.15455 -0.92753,0 -0.83688,-0.52547 -0.79949,0.4726 -1.23671,0.61838 -0.1955,0.0652 -0.4184,-0.05 -0.61836,0 -0.2235,0.0558 -0.3948,0.25325 -0.61836,0.30914 -0.29996,0.075 -0.63423,-0.0979 -0.92755,0 -0.21863,0.0729 -0.39972,0.23632 -0.61836,0.30919 -0.29329,0.0976 -0.62759,-0.075 -0.92752,0 -0.2235,0.0558 -0.39975,0.23629 -0.61836,0.30919 -0.1955,0.0652 -0.43401,-0.0921 -0.61836,0 -0.26072,0.13049 -0.34181,0.52619 -0.61836,0.61834 -0.27825,0.0928 -0.64926,-0.0928 -0.92752,0 -0.21864,0.0729 -0.3948,0.25329 -0.61836,0.30917 -0.1999,0.05 -0.41224,0 -0.61836,0 -0.51531,0 -1.0306,0 -1.54591,0 -0.20614,0 -0.41223,0 -0.61835,0 -0.10296,0 -0.20915,-0.025 -0.30917,0 -0.62088,-0.071 -1.00746,0.48375 -1.54589,0.61836 -0.29996,0.075 -0.61835,0 -0.92754,0 -0.82448,0 -1.64896,0 -2.47344,0 -0.92752,0 -1.85507,0 -2.7826,0 -0.26794,0 -1.05762,-0.0597 -1.23671,0 -1.75171,0.87586 0.46089,-0.11522 -1.23672,0.30919 -0.15154,0.0379 -1.08511,0.58048 -1.23672,0.61838 -0.19989,0.05 -0.41624,-0.0405 -0.61836,0 -0.31955,0.0639 -0.60604,0.25561 -0.92752,0.30914 -1.0228,0.17051 -0.87734,-0.27745 -1.85508,0.30919 -0.24996,0.14992 -0.34181,0.52616 -0.61835,0.61836 -0.24048,0.08 -1.80353,-0.0601 -2.16425,0 -2.78428,0.46404 0.7163,0.0231 -1.5459,0.92755 -0.28705,0.11475 -0.62255,-0.0509 -0.92753,0 -0.64293,0.10712 -1.21592,0.49051 -1.85507,0.61833 -0.30318,0.0606 -0.61836,0 -0.92753,0 -0.72143,0 -1.44283,0 -2.16426,0 -0.0733,0 -1.1674,-0.0347 -1.23672,0 -0.26072,0.13049 -0.34181,0.52619 -0.61834,0.61839 -0.1955,0.0652 -0.41223,0 -0.61835,0 -0.72143,0 -1.44284,0 -2.16427,0 -0.20614,0 -0.42281,-0.0652 -0.61836,0 -0.13835,0.046 -0.17884,0.24397 -0.30916,0.30916 -0.0921,0.046 -0.20615,0 -0.3092,0 -0.10295,0 -0.20614,0 -0.30916,0 -0.51531,0 -1.0306,0 -1.54591,0 -1.64893,0 -3.29789,0 -4.94684,0 -5.565226,0 -11.130427,0 -16.695651,0 -0.618358,0 -1.236716,0 -1.855074,0 -0.309168,0 -0.62759,-0.075 -0.927526,0 -0.223494,0.0558 -0.399745,0.23629 -0.618358,0.30917 -0.09787,0.0326 -0.213546,-0.0382 -0.309191,0 -1.6574,0.66297 -0.752108,0.64066 -2.473409,0.92753 -0.203367,0.034 -0.412239,0 -0.618359,0 -0.51531,0 -1.030597,0 -1.545907,0 -0.206142,0 -0.422812,-0.0652 -0.618358,0 -0.138354,0.046 -0.170976,0.2631 -0.309167,0.30921 -0.177223,0.059 -1.255642,0 -1.545907,0 -1.030574,0 -2.061171,0 -3.091768,0 -0.927549,0 -1.855075,0 -2.782624,0 -0.412239,0 -0.830076,0.0678 -1.236716,0 -0.321453,-0.0537 -0.611348,-0.2302 -0.927526,-0.30921 -0.299936,-0.075 -0.627589,0.075 -0.927526,0 -0.223494,-0.0558 -0.399745,-0.23629 -0.618358,-0.30917 -0.278258,-0.0928 -0.649291,0.0928 -0.927549,0 -0.138353,-0.046 -0.170975,-0.26308 -0.309167,-0.30917 -0.391093,-0.13025 -0.832483,0.081 -1.236717,0 -0.5505,0.62093 -0.927548,-0.51531 -1.236716,-0.61836 -0.1955,-0.0652 -0.416241,0.0405 -0.618358,0 -0.319579,-0.0639 -0.611371,-0.2302 -0.927526,-0.30916 -0.199896,-0.05 -0.418393,0.05 -0.618358,0 -0.836879,0.52544 -0.799468,-0.47263 -1.236717,-0.61839 -0.278257,-0.0928 -0.649291,0.0928 -0.927548,0 -1.751703,-0.87586 0.460894,0.11522 -1.236717,-0.30916 -0.151541,-0.0379 -1.085082,-0.58044 -1.236716,-0.61836 -0.199896,-0.05 -0.433987,0.0921 -0.618335,0 -0.09231,-0.046 0.09763,-0.27657 0,-0.30919 -0.326427,-0.10874 -1.873075,0.11637 -2.164265,0 -0.345006,-0.13812 -0.582521,-0.48033 -0.927526,-0.61834 -0.191336,-0.0766 -0.412239,0 -0.618358,0 -0.589115,0 -0.984348,0.0652 -1.545907,-0.30919 -0.08583,-0.0571 0.09231,-0.2631 0,-0.30919 -0.184395,-0.0921 -0.422812,0.0652 -0.618359,0 -0.138353,-0.046 -0.187865,-0.22835 -0.309167,-0.30914 -2.120214,-1.4135 1.395245,1.39524 -1.236717,-1.23672 -0.948996,-0.94902 -0.257065,0.18069 -1.236716,-0.30921 -0.09208,-0.046 0.07288,-0.23627 0,-0.30917 -0.162878,-0.16288 -0.455411,-0.14622 -0.618358,-0.30917 -0.162878,-0.16288 -0.14622,-0.45541 -0.309168,-0.61836 -0.07288,-0.0729 -0.217016,0.046 -0.30919,0 -1.286714,-0.64336 0.330522,0.0208 -0.309168,-0.61833 -0.162878,-0.16288 -0.490531,-0.11753 -0.618358,-0.30921 -0.114292,-0.17144 0.09208,-0.43397 0,-0.61836 -0.04604,-0.0921 -0.211464,0.0326 -0.309191,0 -0.218636,-0.0729 -0.426606,-0.18139 -0.618358,-0.30915 -0.356735,-0.23786 -0.57079,-0.68973 -0.927526,-0.92755 -0.191798,-0.12794 -0.426606,-0.18138 -0.618358,-0.30916 -0.769067,-0.51272 -0.03563,-0.071 -0.309167,-0.61839 -0.06524,-0.13025 -0.244017,-0.17884 -0.309191,-0.30916 -0.145757,-0.29152 -0.141593,-0.64809 -0.309168,-0.92755 -0.149921,-0.24996 -0.412238,-0.41224 -0.618358,-0.61836 -0.102955,-0.30919 -0.163341,-0.63603 -0.30919,-0.9275 -0.341813,-0.68365 -0.191799,-0.096 -0.618359,-0.30922 -0.683602,-0.34181 -0.09601,-0.19179 -0.309167,-0.61833 -0.06524,-0.13026 -0.206143,-0.20614 -0.309191,-0.30919 -0.102955,-0.10319 -0.178842,-0.24402 -0.309167,-0.30919 -0.09208,-0.046 -0.236312,0.0729 -0.309191,0 -0.780959,-0.78096 -0.11892,-0.35639 -0.309168,-0.92753 -0.07288,-0.21863 -0.206142,-0.41224 -0.30919,-0.61833 -0.102956,-0.20615 -0.14622,-0.45544 -0.309168,-0.61838 -0.412239,-0.41222 -0.296674,0.65586 -0.618358,-0.30917 -0.130488,-0.39109 0.09995,-0.83679 0,-1.23672 -0.05599,-0.22349 -0.236312,-0.39974 -0.309191,-0.61838 -0.03262,-0.0979 0.07288,-0.23629 0,-0.30917 -0.162878,-0.16288 -0.455387,-0.14622 -0.618335,-0.30914 -0.325918,-0.32594 -0.292463,-0.91085 -0.618358,-1.23672 -0.162878,-0.16288 -0.490531,-0.11753 -0.618358,-0.30921 -0.114292,-0.17144 0,-0.41222 0,-0.61834 -0.103187,-0.20614 -0.170976,-0.43401 -0.309191,-0.61838 -0.174909,-0.23319 -0.879079,-0.74871 -0.618358,-0.61836 0.460894,0.23044 0.736815,0.80257 1.236716,0.92755 0.199896,0.05 0,-0.41224 0,-0.61836 0,-0.10318 0,-0.20614 0,-0.30919 0,-0.10295 0.07288,-0.23626 0,-0.30916 -0.162878,-0.16288 -0.490531,-0.11754 -0.618358,-0.30919 -0.618358,-0.92753 0.309191,-0.30915 0,-0.92753 -0.06524,-0.13026 -0.206142,-0.20614 -0.309167,-0.30917 -0.102956,-0.10295 -0.178842,-0.24399 -0.309191,-0.30917 -0.09208,-0.046 -0.26308,0.0921 -0.309168,0 -0.09231,-0.18439 0.06524,-0.42283 0,-0.61838 -0.04604,-0.13835 -0.263103,-0.17097 -0.30919,-0.30916 -0.06524,-0.1955 0.09208,-0.43401 0,-0.61836 -0.04604,-0.0923 -0.263081,0.0921 -0.309168,0 -0.09208,-0.1844 0.06524,-0.42284 0,-0.61834 -0.04604,-0.13835 -0.206142,-0.20614 -0.30919,-0.30921 -0.206143,-0.20614 -0.468367,-0.36837 -0.618359,-0.61834 -0.167736,-0.27946 -0.113598,-0.66682 -0.309167,-0.92755 -0.138354,-0.18439 -0.455411,-0.14622 -0.618358,-0.30916 -0.07288,-0.0729 0.04604,-0.21702 0,-0.30919 -0.06524,-0.13049 -0.263081,-0.17098 -0.309191,-0.30919 -0.06524,-0.1955 0.114292,-0.44685 0,-0.61836 -0.127943,-0.1918 -0.455388,-0.14622 -0.618358,-0.30917 -0.162878,-0.16288 -0.14622,-0.45539 -0.309168,-0.61834 -0.162878,-0.16287 -0.45541,-0.14622 -0.618358,-0.30921 -0.67518,-0.67513 -0.06432,-0.50196 -0.309167,-1.23669 -0.04604,-0.13836 -0.263104,-0.17098 -0.309191,-0.30919 -0.130256,-0.3911 0.09995,-0.83679 0,-1.23672 -0.111747,-0.44713 -0.506565,-0.78956 -0.618358,-1.23672 -0.04997,-0.19989 0,-0.41223 0,-0.61835 -0.102956,-0.20615 -0.236312,-0.39973 -0.309168,-0.61834 -0.154549,-0.46378 0.309168,-0.30919 0,-0.92755 -0.04604,-0.0921 -0.206142,0 -0.30919,0 -0.102956,-0.10295 -0.263081,-0.17097 -0.309168,-0.30919 -0.06524,-0.1955 0,-0.41224 0,-0.61836 0,-0.20614 0,-0.41221 0,-0.61831 0,-1.0306 0,-2.06119 0,-3.09181 0,-1.85508 0,-3.71015 0,-5.5652 0,-0.51531 0,-1.0306 0,-1.54591 0,-0.30919 0,-0.61836 0,-0.92755 0,-0.10295 0.03262,-0.21146 0,-0.30917 -0.145757,-0.43725 -0.506588,-0.78959 -0.618358,-1.23671 -0.149922,-0.29071 0.07496,-0.62757 0,-0.92753 -0.07913,-0.31618 -0.230204,-0.61137 -0.309191,-0.92755 -0.02499,-0.1 0.04604,-0.21701 0,-0.30917 -0.130256,-0.26069 -0.526161,-0.34181 -0.618358,-0.61833 -0.06524,-0.1955 0.04997,-0.41839 0,-0.61838 -0.05599,-0.2235 -0.253271,-0.3948 -0.309168,-0.61836 -0.04997,-0.1999 0,-0.41224 0,-0.61836 0,-0.47297 0.03262,-0.72406 -0.30919,-1.23671 -0.05715,-0.0858 -0.263081,0.0921 -0.309168,0 -0.123778,-0.2474 0.136734,-1.3409 0,-1.54589 -0.01851,-0.87054 -0.69709,-0.0787 -0.927549,-0.30919 -0.07288,-0.0729 0.03262,-0.21146 0,-0.30917 -0.07288,-0.21863 -0.181387,-0.42663 -0.309167,-0.61835 -0.102956,-0.10319 -0.206143,-0.20615 -0.309191,-0.3092 -0.102955,0 -0.236289,0.0729 -0.309167,0 -0.07288,-0.0729 0.04604,-0.21701 0,-0.30916 -0.06524,-0.13049 -0.228354,-0.18787 -0.309168,-0.30919 -0.127943,-0.1918 -0.181387,-0.42661 -0.309191,-0.61836 -0.08075,-0.12123 -0.178842,-0.24399 -0.309167,-0.30915 -0.09231,-0.046 -0.263104,0.0921 -0.309191,0 -0.09208,-0.18439 0,-0.41226 0,-0.61838 -0.102955,-0.20614 -0.181387,-0.4266 -0.309167,-0.61833 -0.08468,-0.12702 -0.800532,-0.84287 -0.927549,-0.92755 -0.191798,-0.12794 -0.426607,-0.18139 -0.618358,-0.30919 -0.311991,-0.208 -0.532963,-0.61836 -0.309168,-0.61836 0.102956,0 0.102956,0.30919 0,0.30919 -0.145757,0 -0.187865,-0.22835 -0.309191,-0.30919 -0.191798,-0.12794 -0.721406,-0.10296 -0.618358,-0.30914 0.376517,-0.75306 1.735993,2.41767 -0.309167,-0.30922 -0.123778,-0.16496 0.06524,-0.42281 0,-0.61836 -0.04604,-0.13835 -0.243993,-0.17884 -0.309191,-0.30916 -0.09833,-0.19666 0.08907,-1.2786 0,-1.54591 -0.07288,-0.21864 -0.236289,-0.39972 -0.309168,-0.61836 -0.09277,-0.27826 0.09278,-0.64927 0,-0.92753 -0.18717,-0.56153 -0.264607,-0.57379 -0.618358,-0.92754 -0.102955,-0.10296 -0.243993,-0.17885 -0.30919,-0.30917 -0.09717,-0.19434 0.09717,-1.0424 0,-1.23672 -0.382047,-0.76409 -0.309168,0.10666 -0.309168,-0.61836 0,-0.20614 0,-0.41223 0,-0.61835 0,-0.10296 0.04604,-0.21702 0,-0.30917 -0.06524,-0.13049 -0.243993,-0.17884 -0.309167,-0.30919 -0.04604,-0.0921 0,-0.20615 0,-0.30917 -0.102956,-0.20614 -0.181387,-0.42663 -0.309191,-0.61836 -0.08075,-0.12123 -0.412239,-0.20614 -0.309168,-0.30919 0.102956,-0.10295 0.412239,0.41224 0.309168,0.30919 -0.206143,-0.20614 -0.45666,-0.37582 -0.618358,-0.61836 -0.05715,-0.0858 -0.102956,-0.30919 0,-0.30919 0.102955,0 0,0.41224 0,0.30919 0,-0.30919 0,-0.61835 0,-0.92755 0,-0.30916 -0.138354,-0.650975 0,-0.927521 0.04604,-0.09208 0.206142,0 0.30919,0 0.412239,0 0.824478,0 1.236694,0 1.030597,0 2.061194,0 3.091791,0 0.412238,0 0.828619,-0.0583 1.236716,0 1.087974,0.155474 0.875377,0.437691 1.855075,0.927521 1.728196,0.86411 0.120307,-0.12447 1.855074,0.3092 0.538423,0.13465 1.019376,0.44284 1.545884,0.61835 0.806246,0.26875 1.648955,0.41224 2.473433,0.61836 0.412239,0.10296 0.81439,0.26225 1.236716,0.30917 0.512141,0.0569 1.034577,-0.0639 1.545884,0 0.323396,0.0405 0.606073,0.25561 0.927549,0.30919 0.304957,0.0509 0.618358,0 0.927526,0 0.412239,0 0.824477,0 1.236716,0 1.545907,0 3.091791,0 4.637675,0 1.855075,0 3.710149,0 5.565224,0 0.152929,0 2.01122,0 2.164242,0 0.412239,0 0.828619,0.0583 1.236716,0 0.322633,-0.046 0.618359,-0.20614 0.927549,-0.30919 0.309168,-0.10296 0.618335,-0.20614 0.927526,-0.30917 0.66072,-0.22025 1.484851,-0.5213 2.164242,-0.61836 0.306067,-0.0437 0.622569,0.0509 0.927549,0 0.321453,-0.0537 0.618358,-0.20614 0.927526,-0.30919 0.30919,-0.10295 0.618358,-0.20614 0.927549,-0.30916 0.309167,-0.10319 0.607947,-0.24527 0.927525,-0.3092 0.20221,-0.0405 0.43401,0.0923 0.618359,0 0.09208,-0.046 -0.09208,-0.26308 0,-0.30916 0.380056,-0.18995 0.833593,-0.17491 1.236716,-0.309194 0.218636,-0.07288 0.391046,-0.271293 0.618358,-0.309167 0.406617,-0.06779 0.828619,0.0583 1.236716,0 0.32261,-0.04604 0.618359,-0.206143 0.927526,-0.309168 0.309191,-0.102955 0.618358,-0.206142 0.927549,-0.30919 0.309168,-0.102956 0.60605,-0.255608 0.927526,-0.309168 0.30498,-0.0509 0.621458,0.04373 0.927526,0 0.966556,-0.138122 1.283312,-0.366661 2.164265,-0.618358 0.817143,-0.233489 1.656266,-0.384892 2.473433,-0.618358 0.62671,-0.179074 1.212122,-0.511215 1.855051,-0.618358 0.30498,-0.0509 0.624374,0.06062 0.927549,0 1.999027,-0.399815 -1.263763,-0.303176 1.545884,-0.927549 0.603643,-0.13419 1.240511,0.06825 1.855074,0 0.323906,-0.03586 0.622384,-0.194806 0.927549,-0.309168 0.519637,-0.194806 1.007461,-0.483752 1.545884,-0.618358 0.299936,-0.07496 0.62759,0.07496 0.927526,0 0.141361,-0.0354 0.178842,-0.243993 0.309191,-0.309191 0.496384,-0.24818 1.019376,-0.442847 1.545884,-0.618358 2.627125,-0.875701 0.01851,0.04859 2.164265,-0.309167 0.321453,-0.05368 0.61417,-0.219562 0.927526,-0.309191 0.408583,-0.116837 0.833593,-0.174909 1.236716,-0.309168 0.218636,-0.07288 0.404396,-0.223494 0.618358,-0.309167 0.302597,-0.121002 0.624929,-0.188096 0.927526,-0.309191 0.214009,-0.0856 0.392388,-0.263983 0.618358,-0.309167 0.303175,-0.06062 0.618358,0 0.927549,0 0.515287,-0.102956 1.03608,-0.18185 1.545884,-0.309191 1.051535,-0.262872 2.010827,-0.747365 3.091791,-0.927526 0.203366,-0.03401 0.418393,0.04997 0.618358,0 0.223495,-0.05599 0.404396,-0.223726 0.618358,-0.30919 0.466701,-0.186709 1.737821,-0.565053 2.164242,-0.618359 0.409046,-0.05113 0.828619,0.0583 1.236717,0 0.379917,-0.05437 2.454114,-0.921093 2.473433,-0.927525 0.403123,-0.134421 0.824477,-0.206143 1.236716,-0.309191 0.412239,-0.102956 0.824477,-0.206142 1.236716,-0.309167 0.412243,-0.103187 0.815063,-0.256487 1.236693,-0.309191 0.71585,-0.08954 1.44284,0 2.16427,0 0.30916,0 0.62256,0.0509 0.92752,0 0.57308,-0.09555 1.04126,-0.366036 1.54591,-0.618358 0.20614,-0.102956 0.39972,-0.236289 0.61836,-0.309168 0.4031,-0.134421 0.82813,-0.192492 1.23669,-0.309191 0.31338,-0.08954 0.60607,-0.255584 0.92755,-0.309167 2.35861,0 -0.2439,0.138354 1.54588,-0.309168 0.39993,-0.09995 0.868,0.184395 1.23672,0 0.0921,-0.04604 0,-0.206142 0,-0.30919 0.10319,-0.102956 0.17097,-0.263081 0.30919,-0.309168 0.1955,-0.06524 0.41839,0.04997 0.61836,0 0.22349,-0.05599 0.39972,-0.236312 0.61836,-0.30919 0.28839,-0.09625 1.26013,0.09532 1.54588,0 0.13835,-0.04604 0.17098,-0.263081 0.30917,-0.309168 0.1955,-0.06524 0.41224,0 0.61836,0 0.20614,0 0.41223,0 0.61835,0 0.82448,0 1.64896,0 2.47344,0 2.57648,0 5.15298,0 7.72946,0 8.55395,0 17.10789,0 25.66183,0 1.95813,0 3.91625,0 5.87439,0 0.82448,0 1.64896,0 2.47341,0 0.20314,0 0.75311,0.05807 0.92755,0 0.21864,-0.07288 0.39973,-0.236312 0.61836,-0.309191 0.18255,-0.06085 1.37315,0 1.54589,0 0.10318,0 0.21146,0.03262 0.30919,0 0.56153,-0.187171 0.57377,-0.264607 0.92752,-0.618358 0.10319,-0.102955 0.17884,-0.243993 0.30919,-0.309167 0.18231,-0.09116 0.71486,0.0708 0.92753,0 0.21863,-0.07288 0.39974,-0.236312 0.61836,-0.309191 0.29332,-0.09787 0.62759,0.07496 0.92752,0 0.2235,-0.05599 0.39975,-0.236289 0.61836,-0.309168 0.29626,-0.09879 1.25948,0.09555 1.54591,0 0.27652,-0.09208 0.35763,-0.488009 0.61836,-0.618358 0.0921,-0.04604 0.21146,0.03262 0.30916,0 0.21864,-0.07288 0.39975,-0.236312 0.61836,-0.30919 0.0354,-0.01157 1.72137,-0.04465 1.85508,0 0.21863,0.07288 0.4266,0.181386 0.61835,0.30919 0.12124,0.08075 0.17098,0.263081 0.30917,0.309168 0.39109,0.130487 0.84565,-0.130256 1.23672,0 0.13835,0.04604 0.17884,0.243993 0.30919,0.30919 0.0921,0.04604 0.20614,0 0.30917,0 0.10295,0 0.20614,0 0.30919,0 0.17282,0 1.36343,-0.06085 1.54588,0 2.2395,0.746486 -0.48745,-0.08907 0.92755,0.618359 0.18439,0.09208 0.42281,-0.06524 0.61836,0 0.21863,0.07288 0.39972,0.236288 0.61833,0.309167 0.0979,0.03262 0.21147,-0.03262 0.30919,0 0.2495,0.08329 1.65428,0.776956 1.85508,0.927549 0.23319,0.174909 0.35764,0.487986 0.61836,0.618358 0.18439,0.09208 0.42281,-0.06524 0.61835,0 0.61524,0.204986 0.14437,0.288553 0.30917,0.618358 0.18902,0.378252 0.62627,0.392412 0.92755,0.618335 0.23319,0.174909 0.35762,0.48801 0.61836,0.618359 0.3687,0.184394 0.84562,-0.130257 1.23669,0 0.27655,0.09231 0.37582,0.456683 0.61836,0.618358 0.1918,0.127942 0.45541,0.14622 0.61836,0.309191 0.0729,0.07288 -0.0729,0.236312 0,0.309167 0.0729,0.07288 0.21702,-0.04604 0.30919,0 0.13026,0.06524 0.20614,0.206143 0.30917,0.309191 0.24149,0.241494 0.66074,0.749678 0.92755,0.927525 0.19179,0.127943 0.4266,0.181387 0.61835,0.309191 0.12124,0.08074 0.17098,0.263081 0.30917,0.309168 0.1955,0.06524 0.42281,-0.06524 0.61836,0 0.13835,0.04604 0.17884,0.243993 0.30919,0.30919 0.0921,0.04604 0.21702,-0.04604 0.30917,0 0.37101,0.185552 0.55651,0.742021 0.92755,0.927526 0.0921,0.04604 0.21701,-0.04604 0.30916,0 0.26072,0.130256 0.34182,0.526184 0.61836,0.618358 0.1955,0.06524 0.43399,-0.09208 0.61836,0 0,0.319857 -0.0729,0.427324 0.30917,0.618358 0.0923,0.04604 0.21146,-0.03262 0.30919,0 0.22604,0.07519 0.78602,0.335358 0.92752,0.618359 0.0461,0.09208 -0.0921,0.26308 0,0.309167 0.1844,0.09231 0.42282,-0.06524 0.61836,0 0.13836,0.04604 0.17098,0.263104 0.30919,0.309191 0.1955,0.06524 0.44685,-0.114292 0.61836,0 0.1918,0.127942 0.18139,0.426606 0.30917,0.618358 0.28356,0.425334 0.47697,0.317982 0.92755,0.618358 0.12123,0.08074 0.17884,0.243993 0.30917,0.309168 0.29149,0.145757 0.63603,0.163341 0.92752,0.30919 1.65074,0.825357 -1.03235,-0.207068 0.61836,0.618359 0.0923,0.04604 0.20614,0 0.30919,0 0.20614,0 0.43399,-0.09231 0.61836,0 0.0921,0.04604 0,0.206142 0,0.309167 0.10295,0.103187 0.17097,0.263104 0.30917,0.309191 0.42216,0.140667 1.43293,-0.140668 1.85507,0 0.13835,0.04604 0.20614,0.206142 0.30919,0.309167 0.10296,0.103187 0.24399,0.178842 0.30917,0.309191 0.046,0.09208 -0.0729,0.236289 0,0.309168 0.0831,0.08306 1.01896,-0.07265 1.23672,0 1.29353,-0.559871 0.35763,0.488009 0.61835,0.618358 0.21031,0.105269 1.83724,-0.08167 2.16425,0 0.44715,0.111747 0.78958,0.506564 1.23671,0.618358 0.1999,0.04997 0.41224,0 0.61836,0 0.20614,0.102956 0.39975,0.236312 0.61836,0.309167 0.32853,0.109434 0.90818,-0.109433 1.23671,0 1.29354,-0.55987 0.35764,0.488014 0.61836,0.618354 0.1844,0.0923 0.42281,-0.0652 0.61836,0 0.13835,0.046 0.17098,0.26311 0.30917,0.3092 0.1955,0.0652 0.41839,-0.05 0.61836,0 0.22349,0.056 0.39974,0.23631 0.61835,0.30916 0.25915,0.0863 1.03183,-0.10249 1.23672,0 0.13026,0.0653 0.17884,0.24402 0.30919,0.30919 0.19435,0.0972 1.04238,-0.0972 1.23672,0 0.26072,0.13026 0.34181,0.52619 0.61836,0.61836 1.14614,0.38205 0.20244,-0.41589 0.92752,0.30917 z"
       style="fill:#8d5809;fill-opacity:1;stroke:#ffffff;stroke-width:1.21001732;stroke-linecap:butt;stroke-linejoin:miter;stroke-miterlimit:4;stroke-dasharray:none;stroke-opacity:0.60301508" />
    <path
       sodipodi:nodetypes="cccccccccccccscccssccccccccccccccscccccscccscccsccscsccsccccscccccccccccccssccccccsccccsccsccsccccsccccssccccsccsscsccsscccsccsccccccccccccccccccccccccccccccccccccccccccccccccccccssccccccccsccccccccccsccsccccccccccccccccccccccccccsscccccccccccccccccsccsccscccccccccccccccccccccccccccccccccccccccccccsccsccccsccscscsccssccccccccsccsccc"
       inkscape:connector-curvature="0"
       id="path1268-9"
       d="m 98.886245,132.84396 c 3.480825,-0.46346 1.000173,0.345 1.421945,-0.49854 0.0652,-0.13026 0.17097,-0.26303 0.30919,-0.30912 0.1955,-0.0652 0.4468,0.11429 0.61831,0 0.1918,-0.12794 0.11753,-0.49058 0.30919,-0.6184 0.0386,-0.0257 1.2006,0.0361 1.23672,0 0.16288,-0.16288 0.1173,-0.49051 0.30919,-0.61832 0.17144,-0.11429 0.42281,0.065 0.61833,0 0.13836,-0.046 0.17885,-0.24401 0.30919,-0.30919 0.0923,-0.046 0.23629,0.0729 0.3092,0 0.16287,-0.16288 0.1173,-0.49051 0.30919,-0.6184 0.0976,-0.0653 1.05546,0.0606 1.23671,0 0.13812,-0.0458 0.17884,-0.244 0.30912,-0.30912 0.0923,-0.0458 0.20615,0 0.30919,0 0.23882,0 1.66645,0.0629 1.8551,0 0.21864,-0.0729 0.42661,-0.18139 0.61834,-0.30919 0.12123,-0.081 0.17097,-0.26311 0.30919,-0.30919 0.18393,-0.0613 1.48989,0 1.8551,0 h 3.71012 c 0.27634,0 1.44735,0.0495 1.54591,0 0.26072,-0.13049 0.34183,-0.52621 0.61833,-0.61839 0.1955,-0.0652 0.42282,0.0652 0.61839,0 0.13812,-0.046 0.17884,-0.24394 0.30912,-0.30914 0.0923,-0.0458 0.21701,0.0458 0.30921,0 0.13049,-0.0652 0.17884,-0.24399 0.30919,-0.30919 0.0921,-0.0458 0.21702,0.0458 0.30919,0 0.13026,-0.0652 0.17098,-0.2631 0.30912,-0.30919 0.27828,-0.0928 0.64932,0.0928 0.9276,0 2.23946,-0.74651 -0.48746,0.0891 0.9275,-0.61834 0.1844,-0.0921 0.42281,0.0652 0.61834,0 0.21863,-0.0729 0.39979,-0.23633 0.61838,-0.30919 0.27828,-0.0928 0.64929,0.0928 0.92752,0 2.23951,-0.74651 -0.48745,0.0891 0.92757,-0.61838 0.0921,-0.0458 0.20615,0 0.30913,0 0.23881,0 1.66644,0.0629 1.85509,0 0.56154,-0.18717 0.57378,-0.26456 0.92753,-0.61833 0.10319,-0.10319 0.17884,-0.244 0.30919,-0.30919 0.19434,-0.0972 1.04242,0.0972 1.23672,0 0.26072,-0.13026 0.34181,-0.52619 0.61838,-0.61832 0.15663,-0.0521 1.91148,0 2.16424,0 0.10296,0 0.21702,0.0458 0.30919,0 0.2607,-0.13048 0.34181,-0.5262 0.61831,-0.61838 1.40751,0 0.0185,0.14576 0.92753,-0.30919 0.0923,-0.0458 0.20614,0 0.30919,0 h 0.30919 1.23672 2.78262 0.61831 c 0.10319,0 0.21147,-0.0324 0.30919,0 0.21864,0.0729 0.39484,0.2533 0.61838,0.30919 0.23514,0.0588 1.28697,0 1.54591,0 h 3.09174 3.71015 c 0.35792,0 1.2699,0.069 1.54591,0 0.2235,-0.0558 0.39477,-0.25331 0.61838,-0.30919 0.1999,-0.0502 0.41222,0 0.61831,0 0.10319,0 0.21702,0.0458 0.3092,0 0.13048,-0.0652 0.17884,-0.24401 0.30921,-0.30914 0.19712,-0.0988 1.3557,0.0951 1.54588,0 0.0921,-0.0458 -0.0921,-0.26311 0,-0.30919 0.52383,-0.26195 0.88866,0.34801 1.54586,-0.30919 0.0729,-0.0729 -0.0729,-0.23629 0,-0.30919 0.16288,-0.16288 0.42666,-0.18139 0.61838,-0.3092 0.12124,-0.0807 0.17885,-0.24401 0.3092,-0.30914 0.18439,-0.0921 0.43394,0.0923 0.61833,0 0.27405,-0.13697 0.6461,-0.73989 0.9275,-0.92757 0.1918,-0.12794 0.42668,-0.18139 0.61838,-0.30915 0.12124,-0.081 0.17098,-0.26308 0.30922,-0.30919 0.1955,-0.0652 0.42279,0.0652 0.61831,0 0.16727,-0.0558 0.72441,-0.79211 0.92757,-0.9275 1.18792,-0.79199 0.0454,0.28647 1.85505,-0.6184 0.0921,-0.0458 -0.0923,-0.26308 0,-0.30919 0.1844,-0.0921 0.4184,0.0502 0.61839,0 0.22349,-0.0558 0.39477,-0.25323 0.61831,-0.30913 0.19989,-0.0502 0.41228,0 0.6184,0 h 0.9275 c 0.20615,0 0.41842,0.0502 0.61841,0 0.22349,-0.0558 0.39477,-0.25331 0.61831,-0.30919 0.1999,-0.0502 0.42281,0.0652 0.61838,0 0.13836,-0.046 0.17884,-0.24401 0.30915,-0.30919 0.13766,-0.0687 1.0953,0.0472 1.23671,0 0.67359,0.11568 0.10296,-0.51531 0.30919,-0.6184 0.1844,-0.0921 0.41222,0 0.61838,0 h 0.61832 2.16431 7.42025 7.42028 2.47341 c 0.27258,0 0.66412,-0.0657 0.92759,0 3.12374,0.78098 -0.22326,-0.11152 1.23669,0.6184 0.0921,0.0458 0.20615,0 0.30915,0 0.20614,0 0.42281,-0.0652 0.61838,0 0.13835,0.0458 0.17097,0.26308 0.30919,0.30919 0.1955,0.0652 0.41222,0 0.61833,0 0.31567,0 2.01407,-0.0502 2.16422,0 0.13836,0.0458 0.17885,0.244 0.30919,0.30919 0.1844,0.0921 0.41842,-0.0502 0.61839,0 0.31617,0.0791 0.60792,0.24522 0.92752,0.30913 0.20221,0.0405 0.41222,0 0.61838,0 h 1.23672 4.01934 10.82119 5.87443 2.16422 c 0.20615,0 0.61838,-0.20615 0.61838,0 0,0.20614 -0.80275,0.0923 -0.61838,0 0.38008,-0.18995 0.87237,-0.0905 1.23672,-0.30913 0.19758,-0.11868 0.18139,-0.42667 0.30919,-0.61838 0.16172,-0.24253 0.48801,-0.35761 0.61834,-0.6184 0.0458,-0.0921 0,-0.20614 0,-0.30912 0,-0.20615 -0.0652,-0.42281 0,-0.61838 0.0458,-0.13836 0.26308,-0.17098 0.30919,-0.30919 0.0652,-0.1955 0,-0.41222 0,-0.61834 v -0.61838 c 0,-0.25887 0.0588,-1.31073 0,-1.54584 -0.0558,-0.22372 -0.25332,-0.39484 -0.30919,-0.6184 -0.075,-0.29994 0.0979,-0.63423 0,-0.92751 -0.0729,-0.21863 -0.25325,-0.39484 -0.30915,-0.61838 -0.0701,-0.28031 0,-1.18672 0,-1.5459 v -2.78256 c 0,-0.20313 0.0581,-0.75312 0,-0.92759 -0.0729,-0.21864 -0.18139,-0.42659 -0.30919,-0.61832 -0.081,-0.12123 -0.41222,-0.20614 -0.30919,-0.30919 0.10319,-0.10318 0.45495,0.30919 0.30919,0.30919 -0.23044,0 -0.42661,-0.18138 -0.61838,-0.30919 -0.12123,-0.0807 -0.17884,-0.24401 -0.30915,-0.30919 -0.0939,-0.0472 -1.02324,0 -1.23669,0 -0.30907,0 -1.28141,0.0662 -1.54591,0 -0.31617,-0.0791 -0.61141,-0.2302 -0.92759,-0.30919 -0.1,-0.0252 -0.21702,0.0458 -0.30912,0 -0.26072,-0.13025 -0.34181,-0.52614 -0.61838,-0.61833 -0.1955,-0.0652 -0.4184,0.0502 -0.61834,0 -0.22349,-0.0558 -0.39482,-0.2533 -0.61838,-0.30919 -0.29996,-0.075 -0.63423,0.0979 -0.92753,0 -0.21863,-0.0729 -0.39972,-0.23629 -0.61838,-0.30919 -0.0979,-0.0324 -0.21701,0.0458 -0.30912,0 -0.13049,-0.0652 -0.17884,-0.24402 -0.30919,-0.30915 -0.29151,-0.14576 -0.62495,-0.18809 -0.92759,-0.30919 -0.21401,-0.0856 -0.41222,-0.20614 -0.61832,-0.30919 -0.20614,-0.10296 -0.4266,-0.18139 -0.6184,-0.30919 -1.30441,-0.86962 1.67961,0.5306 -1.23669,-0.92753 -0.29152,-0.14575 -0.62496,-0.18809 -0.92753,-0.309187 -0.42795,-0.171207 -0.80877,-0.447174 -1.23672,-0.618312 -0.30257,-0.121001 -0.63601,-0.163572 -0.9275,-0.30919 -0.33239,-0.166117 -0.60889,-0.427162 -0.92759,-0.618405 -0.19759,-0.118456 -0.42073,-0.190641 -0.61832,-0.309121 -0.31863,-0.191104 -0.60889,-0.427208 -0.92752,-0.618381 -0.19758,-0.118688 -0.43401,-0.170976 -0.61838,-0.309191 -0.23317,-0.174909 -0.35762,-0.48794 -0.61834,-0.618335 -0.18439,-0.09231 -0.41226,0 -0.61838,0 -0.20614,-0.103187 -0.42661,-0.181387 -0.61831,-0.309191 -0.24261,-0.161721 -0.34184,-0.526207 -0.61841,-0.618335 -0.1955,-0.06524 -0.41839,0.05021 -0.61831,0 -0.22349,-0.05576 -0.41228,-0.206142 -0.61838,-0.30919 -0.20614,-0.103187 -0.4266,-0.181387 -0.6184,-0.309191 -0.20314,-0.135346 -0.76016,-0.871745 -0.92751,-0.927526 -0.1955,-0.06524 -0.42281,0.06524 -0.61833,0 -0.27657,-0.09208 -0.34181,-0.526184 -0.61838,-0.618381 -0.29328,-0.09787 -0.63425,0.09786 -0.92753,0 -2.06119,-0.687073 0.72141,0.17167 -0.9275,-0.927503 -0.66933,0 -0.63474,0.09208 -1.23679,-0.30919 -0.24253,-0.161722 -0.34176,-0.526138 -0.61831,-0.618335 -0.39111,-0.130488 -0.84562,0.130256 -1.23671,0 -0.67354,0.11568 -0.10319,-0.515311 -0.3092,-0.618382 -0.36869,-0.184394 -0.8368,0.09995 -1.23671,0 -0.2235,-0.05576 -0.39477,-0.253317 -0.61834,-0.30919 -0.19989,-0.05021 -0.41624,0.04049 -0.61838,0 -0.3196,-0.06386 -0.60797,-0.245243 -0.9275,-0.309145 -0.20221,-0.04049 -0.41229,0 -0.6184,0 -0.3092,-0.103187 -0.60791,-0.245289 -0.92751,-0.309191 -0.23617,-0.0472 -1.00147,0.07843 -1.23671,0 -0.43725,-0.145757 -0.78962,-0.50661 -1.23672,-0.618381 -0.485,-0.121233 -1.06091,0.121233 -1.54591,0 -0.22349,-0.05576 -0.39972,-0.236289 -0.61831,-0.309144 -0.46383,-0.154549 -0.30919,0.309144 -0.92759,0 -0.0921,-0.04581 0,-0.206143 0,-0.309191 -0.10296,-0.103187 -0.17098,-0.26308 -0.3092,-0.309191 -0.39102,-0.130256 -0.83243,0.08098 -1.23671,0 -0.31953,-0.06386 -0.6079,-0.245288 -0.9275,-0.30919 -0.34397,-0.06871 -1.14311,0 -1.54591,0 h -0.61834 c -0.10295,0 -0.21701,0.04581 -0.30919,0 -0.13048,-0.06524 -0.17884,-0.243993 -0.30919,-0.309122 -0.0921,-0.04581 -0.20915,0.02499 -0.30919,0 -0.31618,-0.07913 -0.61831,-0.206142 -0.92752,-0.30919 -0.30919,-0.103187 -0.63601,-0.163572 -0.92751,-0.309214 -0.13048,-0.06524 -0.17097,-0.26308 -0.30919,-0.309191 -0.39111,-0.130256 -0.83681,0.09995 -1.23671,0 -0.2235,-0.05576 -0.39477,-0.253224 -0.61834,-0.309121 -0.24321,-0.06062 -1.5336,0 -1.8551,0 -0.20614,0 -0.42279,0.06501 -0.61838,0 -0.21863,-0.07288 -0.40437,-0.223726 -0.61831,-0.309191 -0.3026,-0.121001 -0.6184,-0.206142 -0.92753,-0.30919 -0.30919,-0.103187 -0.60799,-0.245289 -0.92757,-0.309191 -0.59457,-0.118919 -1.26047,0.11892 -1.85505,0 -0.63913,-0.127942 -1.21596,-0.490531 -1.8551,-0.618335 -0.52368,-0.104806 -1.33506,0.07427 -1.85502,0 -0.42067,-0.05992 -0.81507,-0.256487 -1.23672,-0.309191 -0.81812,-0.102261 -1.65724,0.116606 -2.47348,0 -0.6452,-0.09208 -1.21589,-0.490508 -1.85503,-0.618381 -0.20221,-0.04049 -0.41221,0 -0.6184,0 h -0.92751 -2.47343 -2.7826 c -0.51531,0 -1.04059,-0.101105 -1.54591,0 -1.24419,0.248829 -0.14205,0.225577 -0.92752,0.618381 -0.29149,0.145758 -0.60797,0.245289 -0.92753,0.309191 -0.31023,0.062 -1.27986,-0.106426 -1.5459,0 -0.34499,0.137891 -0.5825,0.480351 -0.92751,0.618335 -0.31037,0.124241 -1.1971,-0.08722 -1.5459,0 -1.64898,0.412262 0.30919,0.103187 -0.92753,0.927572 -0.17144,0.114292 -0.41839,-0.0502 -0.61838,0 -0.55962,-0.186477 -0.57505,0.500781 -0.92753,0.618312 -0.1955,0.06524 -0.41624,-0.04049 -0.61838,0 -0.31953,0.06386 -0.60797,0.245289 -0.9275,0.309214 -0.20221,0.04049 -0.41842,-0.05021 -0.61841,0 -0.22349,0.05576 -0.40437,0.223494 -0.61831,0.30919 -1.91025,0.76407 -0.0958,-0.106888 -1.5459,0.618312 -0.20615,0.103187 -0.43401,0.170976 -0.61834,0.309191 -0.23321,0.174909 -0.38515,0.443449 -0.61838,0.618335 -0.1844,0.138354 -0.41222,0.206143 -0.61838,0.309191 -0.41222,0.206142 -0.84146,0.381236 -1.23672,0.618381 -0.31861,0.191104 -0.60889,0.427162 -0.92752,0.618335 -0.39519,0.237145 -0.868,0.341813 -1.2367,0.618382 -0.23316,0.174908 -0.41221,0.412215 -0.61833,0.618335 -0.30919,0.103187 -0.64807,0.141592 -0.92757,0.30919 -0.24994,0.149922 -0.3758,0.45666 -0.61834,0.618382 -0.0858,0.05691 -0.21146,-0.03239 -0.30919,0 -0.43725,0.145757 -0.8245,0.412215 -1.23672,0.618311 -0.20614,0.103187 -0.39477,0.253318 -0.61838,0.309191 -0.19989,0.0502 -0.41221,0 -0.61831,0 h -1.23672 c -0.10318,0 -0.21146,-0.03239 -0.30919,0 -0.21863,0.07288 -0.41221,0.206143 -0.61833,0.309214 -0.20614,0.102956 -0.42665,0.181387 -0.61838,0.309121 -0.24254,0.161721 -0.35762,0.48801 -0.61838,0.618382 -0.58294,0.291514 -1.27205,0.32682 -1.85506,0.618335 -0.33232,0.166117 -0.57025,0.516281 -0.9275,0.618381 -0.39644,0.113135 -0.82866,-0.05807 -1.23671,0 -1.45996,0.208456 -0.50153,0.511816 -2.16429,0.927526 -0.39991,0.09995 -0.82763,-0.05136 -1.23672,0 -1.7828,0.2228 -0.83214,0.439932 -2.7826,0.927502 -1.26628,0.316618 -0.62067,-0.431418 -1.85505,0.309191 -1.41949,0.851755 0.31048,0.494187 -1.54591,1.236716 -0.19133,0.07658 -0.41839,-0.05021 -0.61838,0 -0.22349,0.05576 -0.41222,0.206147 -0.61831,0.309187 -0.20614,0.10319 -0.42661,0.18139 -0.61841,0.30919 -0.24251,0.16173 -0.34181,0.52621 -0.61831,0.61834 -0.1955,0.0652 -0.47265,-0.14576 -0.61838,0 -0.14576,0.14576 0.14576,0.47262 0,0.61838 -0.14576,0.14576 -0.42281,-0.0652 -0.61833,0 -0.13836,0.046 -0.17098,0.2631 -0.3092,0.30919 -0.1955,0.065 -0.41221,0 -0.61838,0 -0.10295,0 -0.21701,-0.0458 -0.30914,0 -1.41503,0.70746 1.31195,-0.12817 -0.92757,0.61834 -0.4214,0.14043 -0.48128,-0.36019 -0.92753,0.30919 -0.11429,0.17144 0.0923,0.43401 0,0.61833 -0.0458,0.0921 -0.21702,-0.046 -0.30919,0 -0.24719,0.12355 -0.37115,0.49479 -0.61831,0.61838 -0.618406,0.30919 0,-0.61838 -0.927527,0 -0.870588,0.0185 -0.07866,0.69712 -0.309191,0.92751 -0.01851,0.0185 -1.179107,0.58002 -1.236716,0.6184 -0.121233,0.081 -0.187865,0.22835 -0.309191,0.30919 -0.191798,0.12771 -0.426606,0.18139 -0.618381,0.30912 -0.121233,0.081 -0.178842,0.244 -0.309145,0.30919 -0.09208,0.046 -0.236335,-0.0729 -0.30919,0 -0.750905,0.75093 0.09185,0.45403 -0.618382,0.92753 -0.383457,0.2557 -0.853212,0.3627 -1.236716,0.61838 -0.121233,0.0808 -0.206142,0.20614 -0.309121,0.30919 -0.103187,0.10296 -0.228353,0.18787 -0.309191,0.30915 -0.127942,0.19179 -0.117531,0.49055 -0.309191,0.61838 -0.205448,0.34299 -0.670298,-0.17144 -0.927525,0 -0.242536,0.16172 -0.38517,0.44342 -0.618382,0.61833 -0.184394,0.13836 -0.455387,0.14622 -0.618335,0.30919 -0.07288,0.0729 0,0.20615 0,0.30919 -0.102955,0.10319 -0.187865,0.22836 -0.30919,0.30919 -0.191798,0.12772 -0.399723,0.23629 -0.618382,0.30919 -0.09786,0.0324 -0.236289,-0.0729 -0.309144,0 -0.07288,0.0729 0.04604,0.21702 0,0.30913 -0.04095,0.0821 -0.845485,0.8865 -0.927572,0.92759 -0.09208,0.0458 -0.236289,-0.0729 -0.309121,0 -0.07288,0.0729 0.09208,0.26304 0,0.30912 -0.184395,0.0923 -0.422882,-0.065 -0.618405,0 -0.138354,0.046 -0.187865,0.22836 -0.30919,0.30919 -0.191799,0.12795 -0.455365,0.14622 -0.618312,0.30919 -0.07288,0.0729 0.07288,0.23629 0,0.30919 -3.24e-4,2.6e-4 -0.926184,-4.8e-4 -0.927526,0 -0.138354,0.0458 -0.206143,0.20615 -0.309191,0.30915 -0.103187,0.10319 -0.243993,0.17884 -0.30919,0.30919 -0.213315,0.42649 0.374434,0.27657 -0.309191,0.61838 -0.09231,0.0458 -0.217017,-0.0458 -0.309191,0 -0.130256,0.065 -0.178842,0.24402 -0.309144,0.30915 -0.09208,0.0458 -0.236335,-0.0729 -0.309191,0 -0.162878,0.16287 -0.181387,0.42665 -0.309191,0.61838 -0.08074,0.12123 -0.263103,0.17097 -0.30919,0.30919 -0.06501,0.1955 0.09208,0.43401 0,0.61833 -0.04581,0.0921 -0.263034,-0.0923 -0.309145,0 -0.09208,0.1844 0.06524,0.42279 0,0.61838 -0.09208,0.2765 -0.487986,0.35762 -0.618381,0.61832 -0.04581,0.0923 0,0.20614 0,0.30919 0,0.20614 0.06524,0.42281 0,0.6184 -0.102955,0.30912 -0.515287,0.30919 -0.618312,0.61831 -0.06524,0.1955 0,0.41222 0,0.61838 0,0.10296 0.04581,0.21702 0,0.30915 -0.06524,0.13049 -0.206142,0.20614 -0.309214,0.30919 0,0.20614 0.06524,0.42281 0,0.61838 -0.09208,0.2765 -0.487986,0.35761 -0.618381,0.61834 -0.04581,0.0921 0,0.20614 0,0.30919 0,0.17282 0.06062,1.36341 0,1.5459 -0.746509,2.23953 0.08907,-0.48745 -0.618312,0.92751 -0.04604,0.0923 0,0.20614 0,0.30919 v 0.30921 1.23669 c 0,0.69853 0.04581,-0.13835 -0.309191,0.92753 -0.05807,0.17445 0,0.72434 0,0.92752 v 2.47341 1.23672 0.30919 c 0,0.10319 0.103187,0.30919 0,0.30919 -0.103186,0 -0.07288,-0.38202 0,-0.30919 0.717659,1.43541 -0.204291,0.0528 0.927503,0.61838 0,0.31986 -0.07288,0.42735 0.309191,0.61834 0.184394,0.0923 0.422812,-0.0653 0.618404,0 0.218636,0.0729 0.426583,0.18138 0.618312,0.30919 0.121233,0.0807 0.170976,0.2631 0.309191,0.30919 0.1955,0.0652 0.422812,-0.0652 0.618335,0 0.138354,0.0458 0.178842,0.24399 0.30919,0.30919 0.09231,0.046 0.206143,0 0.309191,0 h 0.618335 2.782601 0.30919 c 0.103187,0 0.25607,0.0884 0.309191,0 0.89569,-1.48927 2.512162,1.08816 3.330972,-0.44463 z"
       style="fill:#a17111;fill-opacity:1;stroke:#ffffff;stroke-width:1.21001732;stroke-linecap:butt;stroke-linejoin:miter;stroke-miterlimit:4;stroke-dasharray:none;stroke-opacity:0.60301508" />
    <path
       sodipodi:nodetypes="cccccccccccsccsccscscscsccsccccccccccccccccccccccccccccccccccsccccccccccscccccccscccccccccccccccccccccccccccccccscccccsccccccsccssccccscsccsccccscccsccsscccccccccccccccccccccccccccsccccccscccccccccccccccccscsccc"
       inkscape:connector-curvature="0"
       id="path1270-3"
       d="m 76.149556,136.34186 c -1.016345,0.83209 6.372234,0.0116 5.453338,0.95043 -0.597513,0.61037 7.130912,1.17931 7.265656,1.31403 0.162878,0.16288 -3.74719,-1.20997 -3.55553,-1.08214 0.171438,0.11429 3.383999,0.96785 3.55553,1.08214 0.191799,0.12771 5.325002,0.069 5.487903,0.2319 0.01851,0.0185 -8.714531,1.12101 -8.656991,1.15939 0.242605,0.16172 -0.260698,-0.13049 0,0 0.09231,0.0458 8.58409,-1.23227 8.656991,-1.15939 0.162878,0.16287 -1.505835,-0.9781 -1.313991,-0.8503 0.03864,0.0257 3.90595,0.96875 3.94202,1.00485 0.162878,0.16287 2.387759,0.84189 2.55073,1.00487 0.162878,0.16287 -2.373369,1.96101 -2.235085,2.1455 -2.245519,1.13753 -5.674796,1.49186 -4.594642,1.55685 0.138123,0.18439 -3.602821,1.37743 -3.43985,1.5404 0.162878,0.16288 -2.93398,-0.50254 -2.806176,-0.31081 0.135346,0.20313 -2.407587,0.97886 -2.351829,1.14616 0.06524,0.1955 -0.02846,0.75745 -0.218636,0.83699 v 0 l -0.983816,0.9822 c 0,0 -1.055445,0.48169 -1.147758,0.5278 -0.184395,0.0921 -0.412216,0 -0.618312,0 h -1.545907 -0.618382 c -0.102955,0 -0.217016,-0.046 -0.30919,0 -0.130257,0.0652 -0.178842,0.244 -0.309145,0.30919 -0.09208,0.0458 -0.206142,0 -0.30919,0 -0.10527,0 -1.06942,0.0558 -1.236717,0 -0.173983,-0.0581 -1.062733,-0.56035 -1.236693,-0.61838 -0.309214,-0.10295 -0.618405,0.20615 -0.927526,0 -0.191798,-0.12794 -0.14622,-0.45538 -0.309191,-0.61833 -0.162878,-0.16288 -0.455433,-0.14622 -0.618381,-0.30919 -0.07288,-0.0729 0.09208,-0.26311 0,-0.30919 -0.184394,-0.0923 -0.446873,0.11429 -0.618335,0 -0.191798,-0.12795 -0.181387,-0.42661 -0.309191,-0.61834 -0.414367,-0.6215 -0.220949,-0.0736 -0.927525,-0.30919 -0.355162,-0.11846 -0.42899,-0.73811 -0.618382,-0.92752 -0.162878,-0.16288 -0.426606,-0.18139 -0.618335,-0.3092 -0.121233,-0.081 -0.170975,-0.26308 -0.30919,-0.30919 -0.1955,-0.0652 -0.446851,0.1143 -0.618382,0 -0.191798,-0.12771 -0.181387,-0.4266 -0.309121,-0.61831 -0.08075,-0.12123 -0.187865,-0.22835 -0.309191,-0.30919 -0.282445,-0.18833 -0.750303,-0.26391 -0.927525,-0.6184 -0.123778,-0.2473 0.123546,-0.68013 0,-0.92751 -0.04581,-0.0923 -0.217017,0.0458 -0.309191,0 -0.260721,-0.13048 -0.341836,-0.5262 -0.618381,-0.61833 -0.1955,-0.0652 -0.43401,0.0921 -0.618335,0 -0.09231,-0.0458 0.08583,-0.25202 0,-0.30919 -2.008305,-1.33889 -0.290821,0.007 -1.236717,-0.30919 -0.218636,-0.0729 -0.399722,-0.23629 -0.618381,-0.30919 -0.1955,-0.0653 -0.418393,0.0502 -0.618335,0 -3.123812,-0.78098 0.223263,0.11174 -1.236693,-0.61834 -0.09231,-0.0458 -0.211464,0.0324 -0.309191,0 -0.218636,-0.0729 -0.399745,-0.23633 -0.618405,-0.30919 -0.328532,-0.10943 -0.90816,0.10944 -1.236693,0 -0.218636,-0.0729 -0.426606,-0.18139 -0.618335,-0.30919 -0.121233,-0.0807 -0.170976,-0.2631 -0.309191,-0.30919 -0.378552,-0.12609 -0.850019,0.0967 -1.236716,0 -1.817941,-0.45446 -0.360738,-0.0342 -1.236716,-0.61833 -0.383504,-0.25568 -0.853259,-0.36269 -1.236694,-0.61839 -0.281473,-0.18763 -0.653525,-0.79051 -0.927595,-0.9275 -0.09208,-0.046 -0.206142,0 -0.309121,0 -0.206143,0 -0.416265,0.0405 -0.618381,0 -0.319556,-0.0639 -0.607924,-0.24529 -0.927526,-0.30921 -0.202209,-0.0405 -0.416265,0.0405 -0.618381,0 -0.836856,0.52546 -0.799468,-0.47256 -1.236717,-0.61831 -0.1955,-0.0652 -0.416195,0.0405 -0.618335,0 -0.319579,-0.0639 -0.611325,-0.23021 -0.927502,-0.3092 -0.199896,-0.0502 -0.418393,0.0502 -0.618382,0 -0.5505,0.62095 -0.927526,-0.51531 -1.236716,-0.61833 -0.1955,-0.0652 -0.43401,0.0921 -0.618382,0 -0.09208,-0.0458 0.09208,-0.2631 0,-0.30919 -0.08167,-0.041 -1.551228,0 -1.855051,0 -0.102956,0 -0.211464,0.0324 -0.309191,0 -2.239527,-0.74651 0.487455,0.0891 -0.927502,-0.61838 -0.13766,-0.0687 -1.095309,0.0472 -1.236717,0 -0.673537,0.11568 -0.103187,-0.51531 -0.30919,-0.61834 -0.293829,-0.14691 -1.222511,0.12933 -1.545907,0 -0.345006,-0.13812 -0.608896,-0.42721 -0.927526,-0.61838 -0.395188,-0.23714 -0.853213,-0.36268 -1.236716,-0.61831 -0.242513,-0.16172 -0.412262,-0.41229 -0.618382,-0.6184 -0.102955,-0.10296 -0.228353,-0.18787 -0.309121,-0.3092 -0.127943,-0.19179 -0.117531,-0.4905 -0.309191,-0.61831 -0.309214,-0.20614 -0.618404,0.10296 -0.927595,0 -0.226039,-0.0754 -0.785979,-0.3354 -0.927502,-0.6184 -0.213315,-0.42647 0.374434,-0.2765 -0.309214,-0.61831 -0.618312,-0.30919 0,0.61831 -0.927503,0 -0.904991,-0.60332 -0.06339,-0.43584 -0.309191,-0.92758 -0.06501,-0.13025 -0.206142,-0.20614 -0.309144,-0.30914 -0.102956,-0.10319 -0.187865,-0.22835 -0.309191,-0.30919 -0.282445,-0.18833 -0.750303,-0.26389 -0.927525,-0.61838 -0.04581,-0.0921 0,-0.20614 0,-0.30915 -0.102956,-0.20614 -0.181387,-0.42665 -0.309191,-0.61838 -0.161721,-0.24253 -0.487986,-0.35761 -0.618381,-0.61831 -0.04581,-0.0923 0.04581,-0.21702 0,-0.30921 -0.130256,-0.2607 -0.487987,-0.3576 -0.618312,-0.61839 -0.04604,-0.0921 0.04581,-0.21701 0,-0.30912 -0.341836,-0.68364 -0.19203,-0.096 -0.618405,-0.30919 -0.130256,-0.0652 -0.206142,-0.20614 -0.30919,-0.30919 -0.102956,-0.10318 -0.263035,-0.17097 -0.309122,-0.30919 v -0.61833 c -0.103187,0 -0.263103,0.0923 -0.30919,0 -0.09231,-0.1844 0.114292,-0.44688 0,-0.61838 -0.127943,-0.1918 -0.43401,-0.17098 -0.618382,-0.3092 -0.233165,-0.1749 -0.443449,-0.38516 -0.618335,-0.61833 -0.138354,-0.1844 -0.206142,-0.41222 -0.30919,-0.61838 -0.206143,-0.10296 -0.480097,-0.12471 -0.618335,-0.30915 -0.1955,-0.26076 -0.113599,-0.6668 -0.309191,-0.92757 -0.138354,-0.18439 -0.455434,-0.14622 -0.618381,-0.30912 -0.374319,-0.74878 -0.146221,-0.45543 -0.618335,-0.92759 -0.102956,-0.10296 -0.187866,-0.22836 -0.309191,-0.30913 -0.191798,-0.12794 -0.426583,-0.18138 -0.618312,-0.30919 -0.121233,-0.0807 -0.206143,-0.20614 -0.309191,-0.30919 -0.103187,-0.10318 -0.263103,-0.17097 -0.30919,-0.30919 -0.06524,-0.1955 0.09208,-0.43401 0,-0.61833 -0.04604,-0.0923 -0.217017,0.0458 -0.309214,0 -0.143213,-0.0717 -1.054844,-1.05492 -1.236693,-1.23672 -0.162879,-0.16288 -0.844954,-0.76243 -0.927526,-0.92757 -0.380751,-0.76146 0.897472,0.27914 -0.309191,-0.92753 -0.07288,-0.0729 -0.263103,0.0923 -0.309191,0 -0.309144,-0.61831 0.15455,-0.46376 0,-0.9275 -0.07288,-0.21864 -0.253247,-0.39477 -0.309144,-0.6184 -0.0502,-0.1999 0.06524,-0.42279 0,-0.61832 -0.04581,-0.13835 -0.228353,-0.18786 -0.309191,-0.30919 -0.127711,-0.19179 -0.181387,-0.4266 -0.30919,-0.61838 -0.177917,-0.26678 -0.686032,-0.68603 -0.927526,-0.92752 l -0.309191,-0.30919 c -0.103187,-0.10296 -0.170975,-0.26304 -0.30919,-0.30915 -0.120771,-0.0405 -0.927503,0.17422 -0.927503,-0.30919 0,-0.10319 0.206143,0 0.309191,0 0.206142,0 0.418393,0.0502 0.618312,0 0.559615,0.18625 0.575047,-0.50085 0.927595,-0.61838 0.1955,-0.0652 0.418323,0.0502 0.618312,0 0.223494,-0.0558 0.399722,-0.23629 0.618381,-0.30912 0.09787,-0.0324 0.206143,0 0.309144,0 h 0.618382 0.30919 c 0.102956,0 0.217017,0.0458 0.309145,0 0.130256,-0.0652 0.170976,-0.26311 0.309191,-0.30922 0.195499,-0.0652 0.412261,0 0.618381,0 0.102955,0 0.217016,0.046 0.309121,0 0.130488,-0.0652 0.178842,-0.24399 0.309191,-0.30919 0.158482,-0.0791 0.988859,0.062 1.236716,0 0.632356,-0.15802 1.212169,-0.51119 1.855098,-0.61831 0.30498,-0.0509 0.618335,0 0.927526,0 h 2.782623 8.038634 8.656991 3.091791 c 0.291214,0 1.36998,-0.0588 1.545907,0 0.138354,0.0458 0.178842,0.24399 0.309145,0.30912 0.112672,0.0562 1.367759,0 1.545907,0 h 1.545907 c 0.203135,0 0.753102,-0.0581 0.927502,0 0.218636,0.0729 0.399746,0.23636 0.618382,0.30919 0.1955,0.0652 0.434009,-0.0921 0.618335,0 0.260767,0.13049 0.357684,0.48801 0.618381,0.61841 0.09231,0.0458 0.211464,-0.0324 0.309191,0 0.48875,0.16288 0.949065,0.49606 1.236716,0.9275 0.05691,0.0858 -0.03239,0.21146 0,0.30919 0.07288,0.21864 0.206143,0.41222 0.309144,0.61834 0.102956,0.30919 0.206143,0.61838 0.309191,0.92752 0.102956,0.30919 0.113598,0.66685 0.309191,0.92757 0.138354,0.1844 0.490508,0.1173 0.618381,0.30919 0.114292,0.17144 -0.06524,0.42282 0,0.61832 0.04581,0.13835 0.206143,0.20614 0.309121,0.30921 0.206143,0.20614 0.48801,0.35761 0.618405,0.61831 0.09208,0.1844 -0.05021,0.4184 0,0.61838 0.05576,0.2235 0.181387,0.42661 0.309191,0.61834 0.08074,0.12123 0.273815,0.16774 0.309121,0.30919 0.07496,0.29996 -0.09763,0.63423 0,0.92753 0.03239,0.0979 0.236358,-0.0729 0.30919,0 0.162879,0.16287 0.181387,0.42665 0.309191,0.61838 0.08098,0.12123 0.228353,0.18786 0.309191,0.30919 0.127942,0.1918 0.14622,0.45536 0.309144,0.61833 0.07288,0.0729 0.263104,-0.0923 0.309191,0 0.09231,0.1844 0,0.41226 0,0.61838 0.103187,0.20615 0.181387,0.42661 0.309191,0.61832 0.08745,0.13095 0.799583,0.86362 0.927525,0.92759 0.09208,0.0458 0.236289,-0.0729 0.309191,0 0.154549,0.15455 -0.154549,0.77295 0,0.9275 0.145757,0.14576 0.422812,-0.0652 0.618312,0 0.138354,0.0458 0.178842,0.24402 0.309214,0.30919 0.09208,0.0458 0.211463,-0.0324 0.30919,0 0.218636,0.0729 0.404373,0.2235 0.618382,0.30915 0.302573,0.121 0.656347,0.1284 0.927525,0.30919 0.08583,0.0569 -0.04581,0.21702 0,0.30919 0.06524,0.13049 0.206143,0.20614 0.309191,0.30919 0.102956,0.10296 0.178842,0.24399 0.309121,0.30914 0.09231,0.0458 0.217017,-0.046 0.309191,0 0.130487,0.0653 0.187865,0.22836 0.309191,0.3092 0.191798,0.12771 0.490508,0.11753 0.618335,0.30919 0.114292,0.17143 -0.06524,0.42281 0,0.61838 0.04581,0.13812 0.243993,0.17884 0.30919,0.30914 0.04581,0.0921 -0.07288,0.23634 0,0.30919 0.376586,0.37659 0.690798,0.14483 0.927526,0.61838 0.04581,0.0921 -0.03239,0.21147 0,0.30912 0.07288,0.21864 0.236335,0.39975 0.309191,0.61839 0.03239,0.0979 -0.04581,0.21701 0,0.30921 0.117994,0.23615 0.857724,0.71817 0.927572,0.9275 0.06501,0.1955 -0.04049,0.41627 0,0.61834 0.06385,0.3196 0.230204,0.61139 0.309144,0.92757 0.05021,0.1999 -0.06524,0.42281 0,0.61833 0.746486,2.23953 -0.08907,-0.48745 0.618381,0.92758 0.09833,0.19665 -0.08907,1.27859 0,1.54583 0.255076,0.76537 0.317937,0.61839 0.927503,0.61839 0.206143,0 0.43401,-0.0921 0.618405,0 0.09208,0.0458 0,0.20614 0,0.30921 0,0.20614 -0.05021,0.41839 0,0.61831 0.05576,0.2235 0.206142,0.41229 0.309121,0.61838 -0.01388,1.02296 -0.02823,2.0459 -0.0428,3.06887"
       style="fill:#a17111;fill-opacity:1;stroke:#ffffff;stroke-width:1.21001732;stroke-linecap:butt;stroke-linejoin:miter;stroke-miterlimit:4;stroke-dasharray:none;stroke-opacity:0.60301508" />
    <path
       inkscape:connector-curvature="0"
       id="path1262-1"
       d="m 14.060813,99.613318 c 1.955068,-1.955069 1.748949,-0.924449 1.748949,-2.62347 0,-0.291492 -0.130256,-0.613731 0,-0.874429 0.06524,-0.130487 0.291515,0 0.437272,0 0.145757,-0.145757 0.372051,-0.241749 0.437249,-0.437249 0.25024,-0.750858 -0.383087,-0.901567 0.437249,-1.31177 0.130256,-0.06524 0.334177,0.103187 0.437249,0 0.102955,-0.102955 -0.06524,-0.306877 0,-0.437249 0.09231,-0.184394 0.372074,-0.241679 0.437249,-0.437248 0.09208,-0.276523 -0.161722,-0.631916 0,-0.874452 0.180692,-0.271178 0.693689,-0.166117 0.874451,-0.437249 0.161721,-0.242536 -0.130256,-0.6138 0,-0.874521 0.06524,-0.130256 0.372052,0.130488 0.437249,0 0.130488,-0.260697 -0.161721,-0.631916 0,-0.874498 0.180693,-0.271108 0.693736,-0.166117 0.874521,-0.437202 0.161721,-0.242582 -0.09231,-0.597999 0,-0.874498 0.06524,-0.1955 0.345052,-0.252878 0.437249,-0.437249 0.06501,-0.130488 -0.04604,-0.298965 0,-0.437249 0.102956,-0.309191 0.334154,-0.56533 0.437249,-0.874521 0.13951,-0.418948 -0.135115,-1.781155 0,-2.186198 0.06501,-0.1955 0.372051,-0.24168 0.437202,-0.437249 0.184395,-0.553068 -0.184394,-1.195881 0,-1.748949 0.130257,-0.391116 0.690127,-0.505755 0.874498,-0.874521 0.06524,-0.130257 -0.06524,-0.306854 0,-0.437249 0.09231,-0.184395 0.372052,-0.24168 0.437249,-0.437249 0.09231,-0.2765 0,-0.582937 0,-0.874452 0,-1.166012 0,-2.332002 0,-3.497968 0,-0.291491 0,-0.583006 0,-0.874498 0,-0.145757 -0.103187,-0.334177 0,-0.437249 0.103187,-0.102955 0.372052,0.130257 0.437249,0 0.260721,-0.521418 -0.184395,-1.195881 0,-1.748949 0.06524,-0.1955 0.345075,-0.252877 0.437249,-0.437272 0.06524,-0.130488 0,-0.291492 0,-0.437249 0,-0.650772 -0.06524,-0.558089 0.437272,-1.3117 0.114292,-0.171439 0.372051,-0.241726 0.43718,-0.437249 0.09231,-0.276569 -0.130257,-0.613801 0,-0.874498 0.06524,-0.130488 0.306923,0.06524 0.437248,0 0.184395,-0.09231 0.322911,-0.265741 0.437272,-0.437249 0.180693,-0.271178 0.256487,-0.603343 0.437249,-0.874521 0.114293,-0.171438 0.291492,-0.291445 0.437249,-0.437179 0.145758,-0.145758 0.265718,-0.32298 0.437249,-0.437249 0.271178,-0.180693 0.644039,-0.206837 0.874452,-0.437272 0.103187,-0.103187 -0.102956,-0.334155 0,-0.437249 0.825773,-0.825774 0.825403,-0.206374 1.749019,-0.437249 2.111399,-0.52785 -0.02082,-0.207762 1.3117,-0.874498 0.260767,-0.130256 0.597998,0.09208 0.874498,0 0.30919,-0.102956 0.565307,-0.334178 0.874498,-0.437203 0.393498,-0.131181 0.918225,0.131182 1.3117,0 0.309191,-0.103187 0.565307,-0.334224 0.874521,-0.437249 0.276546,-0.09231 0.582983,0 0.874498,0 0.874498,0 1.748949,0 2.623447,0 0.291515,0 0.591705,0.0708 0.874521,0 0.316178,-0.07912 0.558274,-0.358239 0.874452,-0.437248 0.282792,-0.0708 0.613777,0.130256 0.874497,0 0.130488,-0.06524 0,-0.291515 0,-0.437273 0.291492,-0.145757 0.565307,-0.334154 0.874498,-0.437248 0.138354,-0.04581 0.291515,0 0.437249,0 0.371033,0 2.382415,0.08028 2.62347,0 0.1955,-0.06524 0.252878,-0.345052 0.437249,-0.437249 0.260721,-0.130257 0.597952,0.09231 0.874452,0 0.30919,-0.102956 0.565307,-0.334155 0.874498,-0.437249 0.138353,-0.04581 0.334177,0.103187 0.437249,0 0.103186,-0.102956 -0.130257,-0.372052 0,-0.437203 0.26072,-0.130256 0.591705,0.07056 0.87452,0 1.268113,-0.317011 0.511678,-0.341141 1.311701,-0.874498 0.271178,-0.180693 0.644039,-0.206836 0.874498,-0.437249 0.103187,-0.103187 -0.103187,-0.334177 0,-0.437249 4.39e-4,-4.39e-4 1.309734,0 1.31177,0 0.389125,-0.129793 0.922482,-1.181999 1.3117,-1.3117 0.553068,-0.184395 1.195881,0.184395 1.748996,0 0.1955,-0.06524 0.252877,-0.345075 0.437202,-0.437249 0.260767,-0.130487 0.597999,0.09208 0.874498,0 0.309191,-0.103187 0.565307,-0.334247 0.874521,-0.437272 0.276499,-0.09208 0.613731,0.130256 0.874498,0 0.184395,-0.09208 0.241679,-0.372051 0.437203,-0.437249 0.546821,-0.182312 2.513944,0.182313 3.060696,0 0.952559,0.163572 0.145757,-0.72874 0.437249,-0.874498 0.26072,-0.130256 0.583006,0 0.874521,0 0.72874,0 1.457504,0 2.186198,0 0.291491,0 0.583006,0 0.874498,0 0.145757,0 0.334177,0.102956 0.437272,0 0.102955,-0.102955 -0.103187,-0.334177 0,-0.437249 0.144137,-0.144137 1.432517,0.105501 1.748949,0 0.1955,-0.06524 0.252877,-0.345074 0.437249,-0.437202 0.260697,-0.130488 0.597929,0.09208 0.874498,0 0.30919,-0.103187 0.56533,-0.334224 0.874521,-0.437249 0.276499,-0.09231 0.613731,0.130256 0.874428,0 0.368766,-0.184395 0.483405,-0.744126 0.874521,-0.874521 0.414784,-0.138354 0.874498,0 1.311747,0 0.874451,0 1.748949,0 2.62347,0 1.020186,0 2.040441,0 3.060696,0 0.145758,0 0.291515,0 0.437272,0 0.145758,0 0.306854,0.06524 0.43718,0 0.368766,-0.184395 0.483405,-0.744103 0.874521,-0.874498 0.276545,-0.09231 0.591682,0.0708 0.874497,0 0.316178,-0.07912 0.558344,-0.35817 0.874498,-0.437249 0.282746,-0.0708 0.597952,0.09231 0.874452,0 0.391092,-0.130256 0.505824,-0.690126 0.874498,-0.874451 0.130487,-0.06524 0.291514,0 0.437272,0 0.446364,0 2.848283,0.0708 3.060696,0 0.391092,-0.130488 0.505755,-0.690127 0.874521,-0.874498 0.28971,-0.144832 1.38245,0.122158 1.748949,0 0.309191,-0.103187 0.55832,-0.358239 0.874498,-0.437249 0.282746,-0.0708 0.583006,0 0.874451,0 0.874498,0 1.749019,0 2.623517,0 0.287281,0 1.065,-0.08213 1.3117,0 0.309191,0.102956 0.558344,0.358216 0.874498,0.437249 0.282816,0.0708 0.583007,0 0.874521,0 0.668818,0 1.023911,-0.04604 1.74895,0.437249 0.121233,0.08075 0,0.291491 0,0.437249 0.291491,0.145757 0.571924,0.316177 0.874496,0.437249 0.42788,0.171207 0.8646,0.325432 1.3117,0.437202 0.8745,0.218636 0,-0.437202 1.31177,0 0.1955,0.06524 0.25286,0.345052 0.43725,0.437249 0.13026,0.06524 0.29149,0 0.43725,0 0.29144,0.145757 0.61373,0.241749 0.87445,0.437249 0.32981,0.247371 0.52098,0.662409 0.8745,0.874521 0.39521,0.237145 0.88382,0.266019 1.31177,0.437249 0.60515,0.242026 1.11659,0.716386 1.74895,0.874451 0.56556,0.141362 1.22753,-0.26072 1.74895,0 0.13049,0.06524 0,0.291492 0,0.437249 0.29149,0.145758 0.55832,0.358216 0.8745,0.437249 1.99044,0 0.0252,-0.206142 1.31177,0.437249 0.26069,0.130488 0.66833,-0.206142 0.87442,0 0.23044,0.230436 0.16612,0.693689 0.43728,0.874521 0.13835,0.09208 1.49269,-0.08537 1.74899,0 0.95251,-0.163572 0.14576,0.728694 0.43727,0.874429 0.3715,0.185782 1.75152,-0.144832 2.1862,0 0.39109,0.130487 0.48341,0.744195 0.8745,0.87452 0.2765,0.09208 0.5917,-0.0708 0.87445,0 0.31618,0.0789 0.55834,0.358217 0.8745,0.437249 0.28281,0.0708 0.6138,-0.130487 0.87452,0 0.13026,0.06524 -0.10319,0.334155 0,0.437249 0.23044,0.230436 0.60332,0.256487 0.87443,0.437249 0.17144,0.114292 0.24175,0.372075 0.43727,0.437249 1.74222,0.580693 0.29547,-0.338758 1.31175,0 0.61833,0.206143 1.11661,0.716409 1.74895,0.874452 0.36263,0.09069 1.90016,-0.142981 2.18626,0 0.13026,0.06524 0,0.291514 0,0.437249 0.14576,0.145757 0.24168,0.372074 0.43721,0.437248 0.27657,0.09231 0.598,-0.09208 0.87449,0 0.1955,0.06524 0.25288,0.345075 0.43725,0.437273 0.13049,0.06524 0.29587,-0.03563 0.43728,0 0.4471,0.111747 0.89946,0.231129 1.31167,0.437248 0.1844,0.09208 0.24175,0.372052 0.43727,0.437249 0.27657,0.09208 0.5887,-0.05691 0.8745,0 0.45194,0.09046 0.85981,0.346833 1.31177,0.437203 0.42874,0.08584 0.8969,-0.138122 1.3117,0 0.30919,0.103187 0.56531,0.334224 0.8745,0.437249 0.46284,0.154318 1.82828,-0.178842 2.1862,0 0.13049,0.06524 -0.13026,0.372051 0,0.437249 0.26072,0.130487 0.5917,-0.0708 0.87452,0 0.63233,0.158019 1.11659,0.716386 1.74895,0.874498 0.28279,0.0708 0.58301,0 0.8745,0 0.29149,0.145757 0.5653,0.334177 0.87449,0.437272 0.41481,0.138122 0.88755,-0.106195 1.31171,0 0.63235,0.158019 1.1438,0.632401 1.74901,0.874428 0.42788,0.171207 0.85976,0.346903 1.3117,0.437249 0.42874,0.08584 0.88755,-0.105963 1.31177,0 0.44711,0.111747 0.8745,0.291515 1.31168,0.437272 0.43727,0.145757 0.88382,0.266088 1.31177,0.437249 0.30258,0.121002 0.55834,0.358216 0.8745,0.437249 0.42415,0.105963 0.89692,-0.138354 1.3117,0 3.16717,1.055699 -0.68932,-0.126092 1.31177,0.874498 0.13026,0.06524 0.30685,-0.06524 0.43725,0 0.3687,0.184394 0.50575,0.690149 0.87445,0.874451 0.0713,0.03563 1.99521,0.587958 2.18627,0.874498 0.16172,0.242536 -0.16172,0.631985 0,0.874521 0.18069,0.271178 0.60332,0.256417 0.87443,0.437249 0.17143,0.114292 0.24175,0.372051 0.43727,0.437202 0.36212,0.120771 1.90817,-0.139047 2.18627,0 0.18439,0.09208 0.29142,0.291492 0.43718,0.437249 0.50031,0.500295 0.51762,0.609821 1.31177,0.874498 0.25801,0.08607 1.94188,0 2.18619,0 0.14576,0 0.43725,-0.145757 0.43725,0 0,0.145758 -0.583,0 -0.43725,0 0.2915,0 0.59793,-0.09208 0.8745,0 0.39112,0.130488 0.48341,0.744126 0.87452,0.874521 0.2765,0.09208 0.63192,-0.161721 0.87443,0 0.27118,0.180693 0.16612,0.693666 0.43727,0.874429 0.24252,0.161721 0.61378,-0.130257 0.8745,0 0.13049,0.06524 -0.13049,0.372074 0,0.437248 0.26072,0.130488 0.59795,-0.09208 0.8745,0 0.1955,0.06524 0.29151,0.291515 0.43727,0.437273 0.29142,0.145757 0.56531,0.334154 0.87443,0.437248 0.27657,0.09208 0.59795,-0.09231 0.87452,0 0.30919,0.103187 0.55832,0.358216 0.8745,0.437249 0.28274,0.0708 0.583,0 0.87445,0 0.8745,0 1.74902,0 2.62352,0 0.41177,0 1.93748,-0.08283 2.18619,0 0.1955,0.06524 0.25288,0.345075 0.43725,0.437249 0.26072,0.130256 0.61373,-0.130487 0.87445,0 0.1844,0.09231 0.24173,0.372075 0.43725,0.437249 0.27657,0.09208 0.6138,-0.130256 0.87452,0 0.13049,0.06524 -0.0807,0.315947 0,0.437203 0.22859,0.343039 0.52098,0.662386 0.8745,0.874498 0.39521,0.237145 0.95182,0.149459 1.3117,0.437249 1.02981,0.823829 0.56047,1.591947 1.74902,2.186221 0.2607,0.130256 0.59793,-0.09231 0.87443,0 0.1955,0.06524 0.2724,0.313586 0.43727,0.437249 0.42041,0.315322 0.82381,0.679345 1.31175,0.874498 0.27062,0.108277 0.583,0 0.87452,0 0.14576,0 0.31592,-0.08074 0.43718,0 0.34304,0.228584 0.50582,0.690126 0.8745,0.874521 0.26072,0.130256 0.63198,-0.161722 0.87452,0 0.27118,0.180692 0.25642,0.60325 0.43725,0.874428 0.26537,0.39808 1.11796,0.924217 1.3117,1.31177 0.0652,0.130256 -0.10296,0.334178 0,0.437249 4.1e-4,4.39e-4 1.30973,0 1.31177,0 0.1955,0.06524 0.26571,0.32291 0.43725,0.437249 0.27117,0.180693 0.64404,0.206836 0.87442,0.437202 0.90469,0.904691 -1.38245,-0.03563 0.43728,0.874498 0.41226,0.206143 0.88379,0.266111 1.31174,0.437249 0.3026,0.121002 0.56531,0.334178 0.87452,0.437272 0.2765,0.09208 0.61374,-0.130487 0.87443,0 0.1844,0.09208 0.24175,0.372052 0.43725,0.437249 0.27657,0.09208 0.59795,-0.09231 0.87452,0 0.66644,0.222106 0.63192,1.409034 1.3117,1.748949 2.64089,1.320446 0.18509,-0.06316 2.18627,0.437249 0.63233,0.15802 1.11659,0.716386 1.74895,0.874521 0.56561,0.141362 1.19588,-0.184394 1.74902,0 0.1955,0.06524 0.24166,0.372052 0.43718,0.437249 0.55307,0.184395 1.22753,-0.26079 1.74902,0 0.13025,0.06501 0,0.291445 0,0.43718 0.14575,0.145757 0.24168,0.372074 0.43725,0.437249 0.55306,0.184394 1.18338,-0.141362 1.74895,0 0.31617,0.07913 0.5653,0.334247 0.87452,0.437272 0.13835,0.04581 0.29149,0 0.43725,0 0.29149,0 0.583,0 0.87442,0 1.02028,0 2.04054,0 3.06072,0 0.41051,0 1.93573,-0.08352 2.18627,0 0.1955,0.06524 0.24168,0.372051 0.43725,0.437248 0.55307,0.184395 1.19588,-0.184394 1.74895,0 0.1955,0.06524 0.25288,0.345052 0.43725,0.437249 0.41224,0.206143 0.94302,0.160796 1.3117,0.437249 1.23121,0.02684 0.11128,0.985806 0.43727,1.311704 0.10319,0.10318 0.33422,-0.102959 0.43725,0 0.0539,0.0539 0,1.47483 0,1.74902 0,0.14575 -0.14136,0.40187 0,0.43724 0.56561,0.14137 1.1739,-0.0958 1.74902,0 0.32143,0.0539 0.69366,0.16612 0.87443,0.43721 0.0162,0.025 0,2.10392 0,2.18626 0,0.14576 0.0652,0.30686 0,0.43725 -0.0417,0.0838 -1.66527,1.70708 -1.74895,1.74895 -0.13304,0.0664 -1.44705,0 -1.74902,0 -1.3117,0 -2.62345,0 -3.93515,0 -0.72876,0 -1.4575,0 -2.18627,0 -0.14575,0 -0.29144,0 -0.43718,0 -0.14575,0 -0.30694,0.0653 -0.43727,0 -0.36874,-0.18439 -0.4834,-0.74412 -0.8745,-0.87452 -0.27657,-0.0921 -0.5917,0.0708 -0.87449,0 -0.31618,-0.0791 -0.57188,-0.31615 -0.87446,-0.43725 -0.42794,-0.1712 -0.86466,-0.32541 -1.31177,-0.43718 -0.37406,-0.0935 -1.74918,0 -2.18619,0 -1.89476,0 -3.78946,0 -5.68417,0 -0.45941,0 -1.75237,0.0868 -2.18627,0 -0.5079,-0.10156 -1.6865,-0.54138 -2.1862,-0.87452 -0.34299,-0.22858 -0.53146,-0.64579 -0.87452,-0.8745 -0.27118,-0.18069 -0.64404,-0.20683 -0.87443,-0.43724 -0.23043,-0.23044 -0.33424,-0.56533 -0.43727,-0.87446 -0.0458,-0.13835 0.10296,-0.33422 0,-0.43724 -0.65993,-0.65996 -1.43962,-1.18904 -2.18627,-1.74902 -0.42036,-0.315325 -0.94011,-0.502866 -1.31167,-0.874455 -1.16602,-2.332002 0.43725,0.437203 -1.31177,-1.311747 -0.10296,-0.103186 0.12123,-0.356388 0,-0.437248 -2.81518,-1.876777 -0.26114,0.920029 -1.74895,-1.311701 -0.11429,-0.171438 -0.32291,-0.26581 -0.43725,-0.437249 -0.18069,-0.271201 -0.16612,-0.693758 -0.43727,-0.874521 -0.24252,-0.161721 -0.8745,0.291515 -0.8745,0 0,-0.291491 1.16601,0 0.8745,0 -5.97566,0 -11.95134,0 -17.927,0 -0.62567,0 -0.99009,-0.206142 -1.31177,0.437249 -0.065,0.130256 0.13835,0.391162 0,0.437272 -0.67261,0.345677 -1.49485,-0.230435 -2.1862,0 -0.62567,0.208456 -0.17074,0.671826 -0.87452,0.437249 -3.1671,-1.055769 0.68941,0.126092 -1.31168,-0.874521 -0.13048,-0.06524 -0.33417,0.102956 -0.43727,0 -0.10295,-0.103187 0.10319,-0.334154 0,-0.437249 -0.10295,-0.103187 -0.29896,0.04604 -0.43725,0 -0.30919,-0.103187 -0.60332,-0.256486 -0.8745,-0.437249 -0.34299,-0.228584 -0.50575,-0.690126 -0.87445,-0.874497 -0.13048,-0.06524 -0.29149,0 -0.43725,0 -0.29151,0 -0.583,0 -0.87452,0 -0.72874,0 -1.45743,0 -2.18619,0 -1.31175,0 -2.62345,0 -3.93522,0 -0.50134,0 -1.29602,-0.113136 -1.74895,0 -0.31618,0.07913 -0.56531,0.334223 -0.8745,0.437248 -0.13835,0.04581 -0.30688,-0.06524 -0.43727,0 -0.1844,0.09208 -0.26572,0.322911 -0.43725,0.437249 -0.27118,0.180693 -0.60332,0.256487 -0.87443,0.437249 -0.17144,0.114293 -0.24175,0.372075 -0.43727,0.437249 -1.89311,0.631014 0.1608,-0.835884 -1.749,0.437272 -0.17143,0.114292 -0.24168,0.372052 -0.43727,0.437249 -0.39347,0.131182 -0.9182,-0.131181 -1.31168,0 -0.6184,0.206143 -1.11668,0.716386 -1.74901,0.874429 -0.28275,0.0708 -0.59796,-0.09208 -0.87446,0 -0.1955,0.06524 -0.25287,0.345074 -0.43724,0.437272 -0.23113,0.11568 -1.53599,-0.05321 -1.74902,0 -0.63234,0.158019 -1.11662,0.716385 -1.74895,0.874497 -1.51451,0.378599 -0.26262,-0.553692 -1.74895,0.437249 -0.34304,0.228585 -0.50583,0.690127 -0.8745,0.874452 -0.13049,0.06524 -0.33418,-0.102956 -0.43727,0 -0.23044,0.230435 -0.25649,0.603322 -0.43725,0.874502 -0.72509,1.08765 -0.10041,0.0502 -0.8745,0.43724 -0.18439,0.0923 -0.29144,0.29152 -0.4372,0.43728 -0.14576,0.14575 -0.34505,0.25287 -0.43725,0.43725 -0.0652,0.13025 0.0652,0.30685 0,0.43724 -0.48341,0.96677 -0.27136,0.13558 -0.8745,0.43721 -0.18439,0.0921 -0.29151,0.29149 -0.43725,0.43725 -0.14575,0.14575 -0.34507,0.25287 -0.43727,0.43724 -0.0652,0.13049 0.046,0.29897 0,0.43725 -0.10295,0.30919 -0.29149,0.58301 -0.43725,0.87452 -0.14576,0.2915 -0.20683,0.64402 -0.43718,0.87443 -0.23043,0.23044 -0.69376,0.16612 -0.87452,0.43725 -0.16172,0.24254 0.0923,0.59795 0,0.87452 -0.45495,1.36478 -0.29149,-0.14575 -0.8745,0.43725 -0.10295,0.10296 0.0653,0.30688 0,0.43725 -0.0581,0.11614 -1.19565,1.25368 -1.3117,1.3117 -0.13048,0.0653 -0.33422,-0.10295 -0.43725,0 -0.10318,0.10319 0,0.29152 0,0.43725 0,0.29151 0.13026,0.6138 0,0.87452 -0.0652,0.13026 -0.29151,0 -0.43724,0 -0.29152,0 -0.59796,-0.0923 -0.87453,0 -0.1955,0.0652 -0.24168,0.37205 -0.43724,0.43725 -0.2765,0.0921 -0.59796,-0.0923 -0.87446,0 -0.1955,0.0652 -0.24172,0.37205 -0.43724,0.43725 -0.27657,0.0921 -0.63199,-0.16172 -0.8745,0 -0.27118,0.18069 -0.20684,0.64404 -0.43725,0.87445 -0.10296,0.10296 -0.30688,-0.0652 -0.43727,0 -0.52466,0.26236 -0.78702,1.04938 -1.3117,1.31175 -0.13026,0.0652 -0.30693,-0.0653 -0.43725,0 -0.36875,0.18439 -0.48341,0.74412 -0.8745,0.87452 -0.55307,0.18439 -1.22753,-0.26079 -1.74895,0 -0.13049,0.065 0.13026,0.37205 0,0.43718 -0.28612,0.14298 -1.82359,-0.0907 -2.18627,0 -0.79139,-0.26352 -0.81316,0.70831 -1.3117,0.87452 -0.40507,0.13511 -1.76725,-0.13974 -2.1862,0 -0.29151,0.14576 -0.583,0.29149 -0.87452,0.43725 0,0.14575 0.13026,0.37205 0,0.43725 -0.8745,0.43725 -0.65584,-0.21864 -1.31174,0 -0.29152,0.14575 -0.58301,0.29149 -0.87446,0.43725 0,0.14575 0.10296,0.33417 0,0.43724 -4.4e-4,3.7e-4 -1.3098,0 -1.31177,0 -0.1955,0.0653 -0.25287,0.34508 -0.43724,0.43721 -0.13026,0.0652 -0.33416,-0.10296 -0.43725,0 -0.23044,0.23043 -0.25642,0.60332 -0.43725,0.87449 -0.12355,0.18532 -1.13083,1.22129 -1.3117,1.31177 -0.29041,0.1453 -1.50697,-0.16125 -1.74902,0 -1.59762,1.06507 0.46885,0.64006 -0.87445,1.31171 -0.13026,0.0652 -0.30693,-0.0653 -0.43725,0 -0.36875,0.18439 -0.53153,0.64579 -0.8745,0.87449 -0.27118,0.1807 -0.56531,0.33418 -0.87452,0.43725 -0.13812,0.046 -0.33416,-0.10319 -0.43718,0 -0.10319,0.10296 0.13026,0.37208 0,0.43725 -0.26077,0.13026 -0.598,-0.0921 -0.8745,0 -0.1955,0.0652 -0.29151,0.29152 -0.43727,0.43727 -0.14576,0.14576 -0.34505,0.25288 -0.43725,0.43718 -0.0652,0.13049 0.13049,0.37208 0,0.43725 -0.2607,0.13049 -0.58301,0 -0.8745,0 -0.65077,0 -0.55809,-0.0652 -1.311697,0.43727 -0.368512,0.24571 -1.481821,1.65995 -1.749019,1.749 -0.2765,0.0921 -0.597929,-0.0921 -0.874452,0 -0.391092,0.13025 -0.483405,0.74412 -0.874498,0.87445 -0.276568,0.0923 -0.6138,-0.13026 -0.874497,0 -0.130257,0.0652 0.130256,0.37205 0,0.43725 -0.260721,0.13049 -0.597953,-0.0921 -0.874452,0 -0.1955,0.0652 -0.252947,0.34507 -0.437249,0.43725 -0.26072,0.13049 -0.6138,-0.13049 -0.874521,0 -0.184394,0.0923 -0.241656,0.37207 -0.437249,0.43727 -0.276499,0.0921 -0.631916,-0.16172 -0.874498,0 -0.535692,0.35711 -0.202903,1.08784 -0.874451,1.3117 -1.99049,0 -0.02522,-0.20614 -1.311747,0.43725 -0.194574,0.0972 -1.548984,-0.0666 -1.748972,0 -0.1955,0.0652 -0.265788,0.32291 -0.437249,0.43725 -0.271178,0.18069 -0.60332,0.25649 -0.874498,0.43725 -0.171438,0.11429 -0.437249,0.23113 -0.437249,0.43725 0,0.14575 0.291492,0 0.437249,0 0.583006,0 1.166012,0 1.749019,0 1.457434,0 2.914962,0 4.372396,0 0.378923,0 1.495702,0.0844 1.749019,0 0.309121,-0.10319 0.603274,-0.25649 0.874452,-0.43725 0.714488,-0.47631 0.130487,-0.67347 1.311746,-0.43725 1.804592,0.36092 0.975695,0.15177 1.74895,1.31175 0.114292,0.17143 0.372074,0.24167 0.437272,0.43727 0.276545,0.39232 -0.138354,0.89689 0,1.3117 0.102955,0.30919 0.358216,0.55832 0.437249,0.8745 0.0708,0.28281 0,0.583 0,0.87449 0,0.58296 0,1.16597 0,1.74895 0,0.14576 -0.04604,0.29899 0,0.43727 0.103187,0.3092 0.334154,0.56531 0.437249,0.8745 0.04581,0.13812 0,0.29145 0,0.43721 0,0.14575 0.102955,0.33422 0,0.43724 -0.206143,0.20615 -0.597953,-0.0923 -0.874498,0 -0.309214,0.10296 -0.565331,0.33423 -0.874521,0.43725 -0.258014,0.0861 -1.941905,0 -2.186199,0 -1.457457,0 -2.914961,0 -4.372419,0 -1.166013,0 -2.332002,0 -3.497968,0 -0.291492,0 -0.582983,0 -0.874498,0 -0.145757,0 -0.306877,-0.0652 -0.437249,0 -0.368697,0.1844 -0.505755,0.69013 -0.874521,0.8745 -0.130256,0.0652 -0.291422,0 -0.437179,0 -0.291515,0 -0.583007,0 -0.874498,0 -0.291515,0 -0.583007,0 -0.874521,0 -0.291492,0 -0.591683,0.0708 -0.874498,0 -0.632356,-0.15802 -1.130568,-0.6684 -1.748949,-0.8745 -0.232564,-0.0775 -0.809509,0.0974 -0.874521,0 -0.255631,-0.3835 -0.111285,-0.9858 -0.437249,-1.3117 -0.206143,-0.20614 -0.597929,0.0921 -0.874452,0 -0.1955,-0.0652 -0.291491,-0.29149 -0.437249,-0.43725 -0.291491,-0.29151 -0.583006,-0.583 -0.874498,-0.87452 -0.145757,-0.14575 -0.32291,-0.26572 -0.437248,-0.43725 -0.180693,-0.27117 -0.206837,-0.64404 -0.437273,-0.87449 -0.102955,-0.10296 -0.291422,0 -0.437179,0 -0.291515,-0.14576 -0.644109,-0.20684 -0.874498,-0.43721 -0.230435,-0.23043 -0.206836,-0.64408 -0.437272,-0.87449 -0.230435,-0.23044 -0.60332,-0.25649 -0.874498,-0.43725 -0.171438,-0.1143 -0.252877,-0.34508 -0.437249,-0.43725 -0.130256,-0.0653 -0.334177,0.10295 -0.437202,0 -0.532547,-0.53257 -0.204755,-0.97692 -0.874498,-1.3117 -0.603135,-0.3016 -0.391092,0.52949 -0.874498,-0.43727 -0.06524,-0.13026 0.06524,-0.30693 0,-0.43725 -0.09231,-0.1844 -0.32291,-0.26572 -0.437272,-0.43725 -0.180693,-0.27118 -0.206837,-0.64404 -0.437249,-0.8745 -0.904621,-0.90469 0.03563,1.38245 -0.874451,-0.43725 -0.06524,-0.13026 0.04604,-0.29899 0,-0.4372 -0.102956,-0.30919 -0.334224,-0.56531 -0.437249,-0.8745 -0.04581,-0.13835 0.102955,-0.33418 0,-0.43727 -0.102956,-0.10319 -0.334155,0.10319 -0.437249,0 -0.230436,-0.23044 -0.206837,-0.64402 -0.437249,-0.8745 -0.230436,-0.23044 -0.693689,-0.16612 -0.874521,-0.43725 -0.161721,-0.24253 0.161721,-0.63191 0,-0.87445 -0.180693,-0.27118 -0.60325,-0.25649 -0.874428,-0.43725 -0.171439,-0.11429 -0.291515,-0.29149 -0.437249,-0.43725 -0.145758,-0.14576 -0.372075,-0.24168 -0.437272,-0.43725 -0.09208,-0.27652 0.09231,-0.59795 0,-0.87452 -0.29406,-0.88222 -0.874614,-2.3e-4 -1.311747,-0.87445 -0.437203,-0.8745 0.874498,0 0,-1.31175 -0.180693,-0.27117 -0.644039,-0.20683 -0.874452,-0.43724 -0.230435,-0.23044 -0.206836,-0.64404 -0.437249,-0.87446 -1.706471,-1.70647 -0.234808,0.10111 -1.311769,-0.43725 -0.184395,-0.0923 -0.252878,-0.34507 -0.437249,-0.43724 -0.130257,-0.0652 -0.306854,0.0652 -0.43718,0 -0.184394,-0.0923 -0.241749,-0.37208 -0.437272,-0.43728 -0.276546,-0.0921 -0.591682,0.0708 -0.874498,0 -0.316177,-0.0791 -0.565307,-0.33415 -0.874498,-0.43725 -0.381745,-0.12724 -0.913019,0.0664 -1.3117,0 -0.733113,-0.12215 -1.465301,-0.25697 -2.186268,-0.43724 -0.894209,-0.2235 -1.748949,-0.58301 -2.62347,-0.87446 -0.437249,-0.14575 -0.859737,-0.3469 -1.3117,-0.43724 -0.28587,-0.0569 -0.591683,0.0708 -0.874498,0 -0.79137,0.26352 -0.813164,-0.70832 -1.311747,-0.8745 -0.276522,-0.0923 -0.591705,0.0708 -0.874452,0 -0.316177,-0.0791 -0.558343,-0.35824 -0.87452,-0.43725 -0.424201,-0.10596 -0.896894,0.13835 -1.311747,0 -0.618335,-0.20614 -1.165943,-0.58301 -1.74895,-0.87452 -0.583006,-0.29145 -1.206662,-0.51291 -1.748949,-0.87445 -0.171438,-0.1143 -0.291515,-0.2915 -0.437272,-0.43725 -0.145757,-0.14576 -0.345052,-0.25288 -0.437249,-0.43725 -0.06524,-0.13049 0.121233,-0.35639 0,-0.43725 -2.111445,-1.40762 -0.519937,0.11822 -2.186198,-0.43725 -0.1955,-0.0652 -0.265787,-0.32291 -0.437249,-0.43725 -0.542356,-0.36155 -1.206663,-0.51293 -1.749019,-0.87445 -0.171438,-0.11429 -0.241679,-0.37207 -0.437249,-0.43725 -0.199895,-0.0666 -1.554421,0.0972 -1.748949,0 -0.184395,-0.0923 -0.24168,-0.37207 -0.437249,-0.43727 -0.232749,-0.0775 -3.122678,0 -3.497968,0 -1.748949,0 -3.497968,0 -5.246918,0 -0.291514,0 -0.583006,0 -0.874521,0 -0.145757,0 -0.437248,0.14576 -0.437248,0 0,-0.14576 0.583006,0 0.437248,0 -0.437248,0 -0.874428,0 -1.3117,0 -0.145757,0 -0.306923,0.0652 -0.437249,0 -0.184395,-0.0921 -0.252877,-0.34505 -0.437249,-0.43725 -0.130487,-0.0652 -0.291491,0 -0.437249,0 -0.291514,0 -0.597952,0.0923 -0.874498,0 -0.195499,-0.0652 -0.252877,-0.34505 -0.437202,-0.43725 -0.194575,-0.0972 -1.549031,0.0666 -1.749019,0 -1.364775,-0.45488 0.145757,-0.29149 -0.437249,-0.87445 -0.102955,-0.10296 -0.291491,0 -0.437249,0 -0.463508,0 -0.976736,0.0652 -1.3117,-0.43725 -0.161721,-0.24253 0.09231,-0.59793 0,-0.8745 -0.06524,-0.1955 -0.372052,-0.24168 -0.437249,-0.43725 -0.09231,-0.27652 0,-0.583 0,-0.87452 0,-1.09676 0.219561,-2.51283 -0.437249,-3.4979 -0.08098,-0.12123 -0.356388,0.12124 -0.437272,0 -0.255631,-0.3835 -0.111285,-0.98585 -0.437249,-1.31177 -2.003053,-2.003025 0.273445,3.44367 -1.3117,-1.311742 z"
       style="fill:#cc9f00;fill-opacity:1;stroke:#ffffff;stroke-width:1.21001732;stroke-linecap:butt;stroke-linejoin:miter;stroke-miterlimit:4;stroke-dasharray:none;stroke-opacity:0.60301508" />
  </g>
</svg>
