<?xml version="1.0" encoding="UTF-8" standalone="no"?>
<!-- Created with Inkscape (http://www.inkscape.org/) -->

<svg
   xmlns:dc="http://purl.org/dc/elements/1.1/"
   xmlns:cc="http://creativecommons.org/ns#"
   xmlns:rdf="http://www.w3.org/1999/02/22-rdf-syntax-ns#"
   xmlns:svg="http://www.w3.org/2000/svg"
   xmlns="http://www.w3.org/2000/svg"
   xmlns:xlink="http://www.w3.org/1999/xlink"
   xmlns:sodipodi="http://sodipodi.sourceforge.net/DTD/sodipodi-0.dtd"
   xmlns:inkscape="http://www.inkscape.org/namespaces/inkscape"
   width="240px"
   height="240px"
   viewBox="0 0 240 240"
   version="1.1"
   id="SVGRoot"
   inkscape:version="0.92.5 (2060ec1f9f, 2020-04-08)"
   sodipodi:docname="motor.svg">
  <defs
     id="defs2569">
    <linearGradient
       inkscape:collect="always"
       xlink:href="#linearGradient2479"
       id="linearGradient2481"
       x1="114.13194"
       y1="387.59915"
       x2="95.184982"
       y2="365.50467"
       gradientUnits="userSpaceOnUse"
       gradientTransform="matrix(2.447724,0,0,2.4458396,-52.866389,-808.98059)" />
    <linearGradient
       inkscape:collect="always"
       id="linearGradient2479">
      <stop
         style="stop-color:#000000;stop-opacity:1;"
         offset="0"
         id="stop2475" />
      <stop
         style="stop-color:#000000;stop-opacity:0;"
         offset="1"
         id="stop2477" />
    </linearGradient>
  </defs>
  <sodipodi:namedview
     id="base"
     pagecolor="#ffffff"
     bordercolor="#666666"
     borderopacity="1.0"
     inkscape:pageopacity="0.0"
     inkscape:pageshadow="2"
     inkscape:zoom="1.4"
     inkscape:cx="73.788291"
     inkscape:cy="139.25598"
     inkscape:document-units="px"
     inkscape:current-layer="layer1"
     showgrid="false"
     inkscape:window-width="1366"
     inkscape:window-height="705"
     inkscape:window-x="-8"
     inkscape:window-y="-8"
     inkscape:window-maximized="1" />
  <metadata
     id="metadata2572">
    <rdf:RDF>
      <cc:Work
         rdf:about="">
        <dc:format>image/svg+xml</dc:format>
        <dc:type
           rdf:resource="http://purl.org/dc/dcmitype/StillImage" />
        <dc:title></dc:title>
      </cc:Work>
    </rdf:RDF>
  </metadata>
  <g
     inkscape:label="Capa 1"
     inkscape:groupmode="layer"
     id="layer1">
    <ellipse
       style="opacity:1;fill:#b2b3b3;fill-opacity:1;stroke:none;stroke-width:2.60000014;stroke-linecap:square;stroke-linejoin:bevel;stroke-miterlimit:4;stroke-dasharray:none;stroke-dashoffset:0;stroke-opacity:0.55298235;paint-order:normal"
       id="path2231"
       cx="41.279999"
       cy="154.40044"
       rx="26.410286"
       ry="31.622236" />
    <path
       style="fill:#ffffff;fill-opacity:1;stroke:none;stroke-width:2.60000014;stroke-linecap:butt;stroke-linejoin:miter;stroke-miterlimit:4;stroke-dasharray:none;stroke-opacity:0.55298235"
       d="M 50.888202,58.395953 C 244.02119,-9.9549409 304.05823,97.36513 123.2817,194.98643 l -12.50594,-34.99419 z"
       id="path2220"
       inkscape:connector-curvature="0"
       sodipodi:nodetypes="cccc" />
    <path
       style="fill:url(#linearGradient2481);fill-opacity:1;stroke:none;stroke-width:2.60000014;stroke-linecap:butt;stroke-linejoin:miter;stroke-miterlimit:4;stroke-dasharray:none;stroke-opacity:0.55298235"
       d="M 51.637793,77.724157 C 244.77078,9.373257 304.05823,97.36513 123.28167,194.98643 l -12.50591,-34.99419 z"
       id="path2220-5"
       inkscape:connector-curvature="0"
       sodipodi:nodetypes="cccc" />
    <ellipse
       style="opacity:1;fill:#1c1f25;fill-opacity:1;stroke:#000000;stroke-width:2.6000011;stroke-linecap:square;stroke-linejoin:bevel;stroke-miterlimit:4;stroke-dasharray:none;stroke-dashoffset:0;stroke-opacity:0.55298235;paint-order:normal"
       id="path2203"
       cx="23.183397"
       cy="152.7054"
       rx="49.937603"
       ry="76.628471"
       transform="matrix(0.89293889,-0.4501779,0.45137265,0.89233555,0,0)" />
    <path
       style="opacity:1;fill:#9c9f9c;fill-opacity:1;stroke:#000000;stroke-width:2.60000014;stroke-linecap:square;stroke-linejoin:bevel;stroke-miterlimit:4;stroke-dasharray:none;stroke-dashoffset:0;stroke-opacity:0.55298235;paint-order:normal"
       d="m 60.966584,159.21407 c -0.301707,-0.64482 -1.145952,-2.79569 -1.876083,-4.77968 -1.7114,-4.6505 -4.235101,-9.40105 -7.760803,-14.60878 -2.737877,-4.0441 -8.408324,-10.69564 -11.455299,-13.43725 -0.826303,-0.74346 -1.502364,-1.4451 -1.502364,-1.5591 0,-0.11398 2.310626,-1.32933 5.134688,-2.7007 2.824086,-1.37133 6.171569,-3.06405 7.438902,-3.76165 1.732622,-0.95371 2.732958,-1.26829 4.032528,-1.26829 1.709173,0 1.769582,0.0408 5.458253,3.69743 4.236154,4.19933 7.316857,8.11745 10.587606,13.46574 4.137805,6.766 7.721469,14.77497 7.688621,17.1829 -0.01716,1.18183 -0.04358,1.19968 -7.837148,5.07248 -4.301531,2.13756 -8.167322,3.88262 -8.590631,3.8779 -0.511158,-0.007 -0.953951,-0.40244 -1.31827,-1.181 z"
       id="path2129"
       inkscape:connector-curvature="0" />
    <path
       style="opacity:1;fill:#000000;fill-opacity:1;stroke:#000000;stroke-width:2.60000014;stroke-linecap:square;stroke-linejoin:bevel;stroke-miterlimit:4;stroke-dasharray:none;stroke-dashoffset:0;stroke-opacity:0.55298235;paint-order:normal"
       d="m 43.706678,184.03873 c -2.45825,-0.60424 -6.631105,-3.14877 -9.318387,-5.68222 -3.257456,-3.07093 -5.329063,-6.34378 -7.587162,-11.98657 -2.184496,-5.45892 -3.151322,-10.35388 -3.151322,-15.95502 v -3.23839 l 0.981611,-1.95853 c 0.539894,-1.07717 1.387223,-2.35069 1.882985,-2.83001 0.800944,-0.77438 1.045496,-0.86999 2.195094,-0.85788 1.722929,0.0196 3.531307,0.87632 6.027643,2.86066 3.158617,2.51083 5.205281,4.60465 5.006624,5.12205 -0.09277,0.24141 -0.165956,1.73454 -0.162774,3.31776 0.0073,3.38262 0.45983,5.26474 2.035748,8.45967 1.336653,2.70982 3.732607,5.19469 5.723439,5.9358 l 1.349529,0.50238 0.426662,2.20718 c 0.544986,2.81924 0.573404,7.21266 0.05948,9.18894 -0.993507,3.8203 -2.910785,5.54306 -5.46917,4.91418 z"
       id="path2143"
       inkscape:connector-curvature="0" />
    <path
       style="opacity:1;fill:#b2b3b3;fill-opacity:1;stroke:#000000;stroke-width:2.60000014;stroke-linecap:square;stroke-linejoin:bevel;stroke-miterlimit:4;stroke-dasharray:none;stroke-dashoffset:0;stroke-opacity:0.55298235;paint-order:normal"
       d="m 38.468866,162.66408 c -0.735173,-0.58074 -1.634541,-1.93232 -2.426428,-3.64646 -0.857462,-1.856 -1.255291,-3.27036 -1.375401,-4.88974 l -0.04577,-0.61922 h 1.005573 1.005575 l 0.690698,1.38505 c 1.012795,2.03098 1.884969,4.13673 2.685447,6.48366 l 0.304938,0.894 -0.695472,0.29519 c -0.38253,0.16265 -0.726264,0.3068 -0.763885,0.32133 -0.0377,0.0171 -0.210994,-0.0863 -0.385125,-0.22379 z m -0.413469,-3.31285 c 0.324127,-0.15799 0.449745,-0.69376 0.314606,-1.34146 -0.110637,-0.53034 -0.26898,-0.85411 -0.547752,-1.12034 -0.401524,-0.38334 -0.793576,-0.41037 -1.076631,-0.0744 -0.563858,0.66965 -0.164487,2.17037 0.679268,2.55177 0.24793,0.11202 0.374771,0.10908 0.630509,-0.0172 z"
       id="path2145"
       inkscape:connector-curvature="0" />
    <path
       style="opacity:1;fill:#b2b3b3;fill-opacity:1;stroke:#000000;stroke-width:2.60000014;stroke-linecap:square;stroke-linejoin:bevel;stroke-miterlimit:4;stroke-dasharray:none;stroke-dashoffset:0;stroke-opacity:0.55298235;paint-order:normal"
       d="m 86.053971,178.59238 c 2.217241,-6.52823 1.962096,-15.70238 -0.735102,-26.4302 -2.718149,-10.81113 -8.049978,-23.20397 -13.11887,-30.49241 -3.185716,-4.58064 -9.328009,-10.72282 -13.931713,-13.93149 -2.757557,-1.922 -8.248316,-4.26249 -11.342068,-4.83482 -2.248993,-0.41604 -2.248993,-0.48083 0,-0.49391 1.32346,-0.007 2.693892,0.0912 3.434401,0.24803 9.226697,1.9531 19.734482,10.49612 26.849675,21.82922 1.318122,2.0995 3.992802,7.50263 5.380563,10.86928 5.810282,14.09557 8.395816,28.06168 6.869903,37.1085 -0.37504,2.22356 -1.350412,5.13622 -2.251417,6.72325 -0.638463,1.12454 -0.800849,1.29451 -1.281239,1.34122 l -0.550101,0.0533 z"
       id="path2147"
       inkscape:connector-curvature="0" />
    <path
       style="opacity:1;fill:#000300;fill-opacity:1;stroke:none;stroke-width:2.60000014;stroke-linecap:square;stroke-linejoin:bevel;stroke-miterlimit:4;stroke-dasharray:none;stroke-dashoffset:0;stroke-opacity:0.55298235;paint-order:normal"
       d="m 89.429648,179.49111 c 0.812967,-1.94606 1.078519,-2.67091 1.457718,-3.97855 2.287302,-7.88795 0.957601,-20.07824 -3.686636,-33.79752 -1.656649,-4.89368 -3.03829,-8.22863 -5.386929,-13.00264 -2.235997,-4.54498 -4.315702,-7.86628 -7.16596,-11.44428 -1.841197,-2.3112 -6.774787,-7.2954 -8.87055,-8.9616 -2.353119,-1.87068 -5.708263,-4.04131 -8.038595,-5.20054 -1.995997,-0.99289 -5.475118,-2.29992 -6.122027,-2.29992 -0.666099,0 -0.200713,-0.36453 0.903211,-0.70732 1.698573,-0.52744 4.935027,-0.7888 6.74813,-0.5449 6.194333,0.83305 13.049158,5.57384 19.24893,13.31268 1.779789,2.2216 5.048232,7.06294 6.596857,9.77164 10.364545,18.12807 14.624437,39.51004 10.057382,50.48144 -0.748612,1.7984 -1.767847,3.30132 -3.137785,4.62697 -1.184018,1.14575 -2.808227,2.23398 -2.603746,1.74454 z"
       id="path2149"
       inkscape:connector-curvature="0" />
    <path
       style="opacity:1;fill:#b2b3b3;fill-opacity:1;stroke:#000000;stroke-width:2.60000014;stroke-linecap:square;stroke-linejoin:bevel;stroke-miterlimit:4;stroke-dasharray:none;stroke-dashoffset:0;stroke-opacity:0.55298235;paint-order:normal"
       d="m 97.848767,172.05383 c -0.0026,-0.0807 0.145638,-0.75418 0.332057,-1.49657 0.684387,-2.724 0.806309,-4.04994 0.795979,-8.65656 -0.01224,-5.63744 -0.510524,-9.44685 -2.036508,-15.58178 -3.614186,-14.52997 -11.50927,-29.59253 -20.336523,-38.79847 -3.929898,-4.09862 -8.504696,-7.32722 -12.630673,-8.91406 -1.565051,-0.60192 -0.828237,-0.54187 1.127617,0.0917 7.182652,2.32739 15.359564,8.9944 22.257426,18.14747 5.922044,7.85826 9.333076,14.48101 11.280775,21.90244 1.505633,5.73701 2.089743,10.48463 2.101193,17.07834 0.01,6.58675 -0.39775,9.72821 -1.786537,13.71693 -0.588382,1.68981 -1.089509,2.8285 -1.104806,2.51044 z"
       id="path2151"
       inkscape:connector-curvature="0" />
    <path
       style="opacity:1;fill:#151516;fill-opacity:1;stroke:#000000;stroke-width:2.60000014;stroke-linecap:square;stroke-linejoin:bevel;stroke-miterlimit:4;stroke-dasharray:none;stroke-dashoffset:0;stroke-opacity:0.55298235;paint-order:normal"
       d="m 104.18413,134.61162 c -2.18021,-0.26579 -4.14803,-0.51329 -4.372946,-0.5502 -0.34029,-0.0558 -0.537917,-0.39686 -1.177209,-2.03131 -0.422531,-1.08036 -0.935179,-2.29127 -1.139247,-2.69099 -0.204138,-0.39975 -0.444019,-0.91868 -0.533288,-1.15323 -0.147594,-0.38814 -0.119448,-0.42492 0.314973,-0.40847 0.264064,0.01 1.921393,-0.66181 3.710727,-1.50426 1.77844,-0.83723 3.3046,-1.52229 3.39144,-1.52229 0.18995,0 0.18896,0.2008 -0.005,1.21013 -0.13976,0.72316 -0.0908,0.87828 0.80692,2.55299 0.58094,1.08378 1.31122,2.14312 1.86223,2.70126 l 0.90649,0.91834 1.06907,-0.10468 c 0.58798,-0.0575 1.14021,-0.1695 1.22716,-0.24867 0.0871,-0.0792 -0.27855,-0.33706 -0.81259,-0.57311 -0.58695,-0.25933 -1.37976,-0.83735 -2.00538,-1.46183 -0.96714,-0.96542 -1.00689,-1.03669 -0.60941,-1.09317 0.23376,-0.033 0.8466,-0.007 1.36168,0.0568 0.92261,0.1152 0.94609,0.13305 1.58938,1.20477 0.5676,0.94573 0.65407,1.23574 0.66173,2.2194 l 0.01,1.13155 -0.5911,0.15482 c -0.58442,0.15262 -0.58978,0.16387 -0.47371,0.93719 l 0.1175,0.78245 -0.67146,-0.022 c -0.36929,-0.0122 -2.45524,-0.2392 -4.63548,-0.50507 z"
       id="path2153"
       inkscape:connector-curvature="0" />
    <path
       style="opacity:1;fill:#b2b3b3;fill-opacity:1;stroke:#000000;stroke-width:2.60000014;stroke-linecap:square;stroke-linejoin:bevel;stroke-miterlimit:4;stroke-dasharray:none;stroke-dashoffset:0;stroke-opacity:0.55298235;paint-order:normal"
       d="m 106.60185,125.41365 c 0.11627,-1.03127 -0.30126,-1.97788 -1.07331,-2.4331 -0.33597,-0.19812 -0.73806,-0.55426 -0.89359,-0.79147 -0.15543,-0.23701 -0.38926,-0.43128 -0.5194,-0.43128 -0.26012,0 -3.34058,1.55984 -6.353164,3.21701 -1.06104,0.58363 -1.954752,0.98446 -1.986032,0.89068 -0.03135,-0.0939 -0.610045,-1.09669 -1.286084,-2.22867 -0.676064,-1.13189 -1.229176,-2.08652 -1.229176,-2.12143 0,-0.0352 0.336934,-0.10835 0.74876,-0.16314 1.01669,-0.13574 6.703036,-3.00373 7.465166,-3.76532 0.48288,-0.48259 0.59497,-0.73094 0.59497,-1.31845 v -0.72385 l -1.1486,0.10738 c -1.782842,0.16631 -6.516891,2.21346 -8.031762,3.47309 l -0.811859,0.67505 -0.894327,-1.26592 c -0.491892,-0.69626 -1.114987,-1.56945 -1.384679,-1.94053 l -0.490299,-0.67451 0.434739,-0.34051 c 0.239143,-0.18686 1.555406,-0.98117 2.925053,-1.7644 1.369673,-0.78326 2.892451,-1.77563 3.38398,-2.20532 l 0.893661,-0.78127 -0.101334,0.85375 c -0.0935,0.78763 -0.06386,0.87817 0.380157,1.16898 l 0.481348,0.3152 0.851073,-0.8378 0.851103,-0.83773 0.613776,0.46782 c 0.76049,0.57972 1.12324,1.0873 1.94129,2.71647 l 0.64246,1.27947 -0.37512,1.44952 c -0.20634,0.79725 -0.4144,1.62245 -0.4624,1.83362 -0.0935,0.41211 0.71253,1.64388 1.07123,1.63684 0.10966,0 0.39751,-0.15898 0.63976,-0.34822 0.58243,-0.45532 1.22587,-0.44069 1.94589,0.0443 0.44509,0.29968 0.72754,0.73964 1.15858,1.80463 0.72832,1.79941 0.86566,2.57471 0.56518,3.19089 -0.38319,0.78582 -0.64475,0.71336 -0.54721,-0.15139 z"
       id="path2155"
       inkscape:connector-curvature="0" />
    <path
       style="opacity:1;fill:#111215;fill-opacity:1;stroke:#000000;stroke-width:2.60000014;stroke-linecap:square;stroke-linejoin:bevel;stroke-miterlimit:4;stroke-dasharray:none;stroke-dashoffset:0;stroke-opacity:0.55298235;paint-order:normal"
       d="m 86.57893,112.49328 c -0.993751,-1.17241 -1.231715,-1.55394 -1.045911,-1.67714 0.132181,-0.0876 1.010201,-0.59972 1.950938,-1.13777 0.940756,-0.53807 1.75516,-1.1191 1.809845,-1.29121 0.117732,-0.37084 -0.05239,-0.89066 -0.291549,-0.89066 -0.09301,0 -1.031009,0.50825 -2.084555,1.12949 l -1.91559,1.12939 -0.116023,-0.52776 c -0.227148,-1.03405 -0.04404,-4.64274 0.375676,-7.39989 l 0.09913,-0.65101 1.210551,-0.11911 c 1.155101,-0.11397 1.232207,-0.15042 1.683739,-0.80155 0.260243,-0.37536 0.505603,-0.68244 0.545276,-0.68244 0.03963,0 0.663093,0.39858 1.385462,0.88569 1.49835,1.01043 1.4293,0.76882 1.046676,3.66316 -0.145153,1.09776 -0.224701,2.05937 -0.176731,2.13683 0.04799,0.0775 0.375727,0.19518 0.728418,0.26129 l 0.641254,0.12009 -0.590998,0.60938 c -0.664167,0.68481 -0.70886,0.54227 0.682547,2.17705 l 0.92974,1.09235 -0.401205,0.31295 c -0.220537,0.17219 -1.194024,0.7676 -2.162977,1.3232 -0.96898,0.55565 -2.014159,1.20046 -2.322624,1.43284 -0.308438,0.23211 -0.590953,0.42255 -0.627764,0.42255 -0.03698,0 -0.645833,-0.68298 -1.353372,-1.51767 z"
       id="path2157"
       inkscape:connector-curvature="0" />
    <path
       style="opacity:1;fill:#171617;fill-opacity:1;stroke:#000000;stroke-width:2.60000014;stroke-linecap:square;stroke-linejoin:bevel;stroke-miterlimit:4;stroke-dasharray:none;stroke-dashoffset:0;stroke-opacity:0.55298235;paint-order:normal"
       d="M 73.943366,100.83262 C 72.95997,100.17195 71.493289,99.2901 70.684047,98.87306 69.87483,98.45597 69.173191,98.0799 69.124846,98.03739 c -0.04825,-0.0426 0.259193,-0.37319 0.683408,-0.7347 l 0.771305,-0.65725 -0.463183,-0.73326 c -0.254738,-0.4033 -0.463189,-0.77074 -0.463189,-0.81657 0,-0.046 0.371252,-0.2474 0.825005,-0.44796 l 0.824986,-0.36472 0.649868,0.63421 0.649848,0.63415 1.23994,-0.62403 1.239921,-0.62401 -0.09815,-0.730153 c -0.09448,-0.70384 -0.08273,-0.72581 0.324299,-0.60811 0.232291,0.067 0.56102,0.16093 0.730601,0.20789 0.20487,0.0568 0.308335,0.26095 0.308335,0.60787 0,0.511553 -0.495026,7.345523 -0.575656,7.947193 -0.03258,0.24361 -0.404339,0.0616 -1.828963,-0.89544 z"
       id="path2159"
       inkscape:connector-curvature="0" />
    <path
       style="opacity:1;fill:#161516;fill-opacity:1;stroke:#000000;stroke-width:2.60000014;stroke-linecap:square;stroke-linejoin:bevel;stroke-miterlimit:4;stroke-dasharray:none;stroke-dashoffset:0;stroke-opacity:0.55298235;paint-order:normal"
       d="m 164.44536,86.396027 c -0.30672,-0.33848 -1.09474,-1.11487 -1.75125,-1.72537 -0.74046,-0.68853 -1.64029,-2.18722 -2.37022,-3.94754 -0.64716,-1.56076 -1.78545,-3.52893 -2.52958,-4.37377 -1.34924,-1.53178 -4.96562,-3.747 -6.20912,-3.80326 -0.39438,-0.0196 -0.0737,-0.29744 0.80547,-0.70161 1.36064,-0.62587 1.55159,-0.63406 2.78363,-0.11936 1.27763,0.53351 1.42081,0.51536 4.19457,-0.53084 1.57951,-0.59579 3.46475,-1.08322 4.18947,-1.08322 1.47446,0 3.58741,0.95256 4.60346,2.07532 0.36919,0.40797 0.87836,0.74175 1.13151,0.74175 0.45427,0 1.54463,3.0358 1.54463,4.30052 0,0.35829 0.22226,0.73666 0.49393,0.84083 0.27165,0.1042 0.58919,0.6934 0.70573,1.30943 0.11651,0.61601 0.52616,1.63502 0.91033,2.26443 0.65497,1.07307 0.82224,1.14444 2.68322,1.14444 1.7198,0 2.15187,0.1465 3.23687,1.09869 l 1.25216,1.09875 -3.49596,-0.24708 c -3.12746,-0.22086 -3.68165,-0.16705 -5.25774,0.5114 -0.96898,0.41716 -2.55457,0.90816 -3.52357,1.09106 -0.96898,0.18295 -2.00434,0.40873 -2.30084,0.50179 -0.29646,0.0929 -0.79,-0.10786 -1.0967,-0.4461 z"
       id="path2169"
       inkscape:connector-curvature="0" />
    <path
       style="opacity:1;fill:#0e1211;fill-opacity:1;stroke:#000000;stroke-width:2.60000014;stroke-linecap:square;stroke-linejoin:bevel;stroke-miterlimit:4;stroke-dasharray:none;stroke-dashoffset:0;stroke-opacity:0.55298235;paint-order:normal"
       d="M 120.92725,62.048399 C 110.90159,57.84246 98.550872,52.231557 98.554693,51.884615 c 0.0013,-0.103948 1.399261,-0.701002 3.106937,-1.327308 l 3.10492,-1.138808 10.72303,4.68327 c 5.89765,2.575713 11.00049,4.78663 11.33962,4.913104 0.97579,0.363819 0.72514,0.900632 -0.70472,1.509132 -3.67357,1.56343 -4.51554,1.810386 -5.19723,1.524394 z"
       id="path2171"
       inkscape:connector-curvature="0" />
    <path
       style="opacity:1;fill:#131212;fill-opacity:1;stroke:#000000;stroke-width:2.60000014;stroke-linecap:square;stroke-linejoin:bevel;stroke-miterlimit:4;stroke-dasharray:none;stroke-dashoffset:0;stroke-opacity:0.55298235;paint-order:normal"
       d="m 205.32485,55.052833 c -1.31944,1.119216 -2.19534,1.272595 -6.16241,1.079447 -2.98359,-0.146017 -3.06979,-0.127183 -4.65773,0.972319 -2.1528,1.49096 -2.35447,1.548094 -6.84459,1.938426 -3.08612,0.268162 -4.24111,0.52204 -5.64614,1.240603 -2.86519,1.465449 -4.42185,1.90504 -5.90629,1.667965 -2.27822,-0.363623 -3.69907,-0.09637 -6.25164,1.176326 -3.51059,1.750341 -3.86965,1.788398 -4.71519,0.498609 -1.71649,-2.618125 -5.24364,-2.726401 -10.1911,-0.312701 -1.71387,0.836062 -4.57039,1.663538 -7.92612,2.296008 -1.35044,0.254857 -3.45891,0.881062 -4.68573,1.392392 -1.22685,0.51135 -3.56102,1.24889 -5.18707,1.63903 -1.626,0.38999 -5.03374,1.42835 -7.57262,2.30697 l -4.61609,1.59774 -0.6812,-0.98359 c -0.3747,-0.54041 -0.61078,-1.03217 -0.52558,-1.09178 0.664,-0.45972 8.06846,-3.64305 12.51509,-5.380356 12.90744,-5.043101 25.01907,-8.336791 39.88271,-10.845929 6.84182,-1.154999 15.24567,-2.251444 19.87211,-2.59281 l 1.8542,-0.137212 -0.0568,1.479856 c -0.0874,2.292949 -0.0766,2.318435 0.94146,2.091437 3.88658,-0.867906 7.74691,-1.497074 7.70647,-1.255938 -0.0264,0.160936 -0.54259,0.710492 -1.14637,1.222479 z"
       id="path2173"
       inkscape:connector-curvature="0" />
    <path
       style="opacity:1;fill:#160a15;fill-opacity:1;stroke:#000000;stroke-width:2.60000014;stroke-linecap:square;stroke-linejoin:bevel;stroke-miterlimit:4;stroke-dasharray:none;stroke-dashoffset:0;stroke-opacity:0.55298235;paint-order:normal"
       d="m 152.59889,104.46626 c -0.39636,-0.79571 -0.70369,-1.46005 -0.68299,-1.47634 0.0196,-0.0195 1.23179,-0.55029 2.69145,-1.18662 1.52121,-0.66329 2.69773,-1.10951 2.75665,-1.0455 0.3429,0.37248 1.76163,2.19727 1.72936,2.22427 -0.0313,0.0259 -5.46175,2.78552 -5.70549,2.89913 -0.0377,0.0195 -0.39262,-0.61926 -0.78898,-1.41494 z"
       id="path2175"
       inkscape:connector-curvature="0" />
    <path
       style="opacity:1;fill:#160a15;fill-opacity:1;stroke:#000000;stroke-width:2.60000014;stroke-linecap:square;stroke-linejoin:bevel;stroke-miterlimit:4;stroke-dasharray:none;stroke-dashoffset:0;stroke-opacity:0.55298235;paint-order:normal"
       d="m 148.64528,94.97581 -0.81661,-1.469463 0.81661,-0.28225 c 0.44916,-0.15531 1.76253,-0.64399 2.91856,-1.08598 2.3742,-0.90765 2.27213,-0.91261 2.88553,0.14113 0.6485,1.11393 0.76501,0.9709 -2.14389,2.629423 -1.42692,0.81351 -2.65044,1.49211 -2.71895,1.50799 -0.0683,0.0171 -0.49209,-0.63245 -0.94125,-1.44058 z"
       id="path2177"
       inkscape:connector-curvature="0" />
    <path
       style="opacity:1;fill:#160a15;fill-opacity:1;stroke:#000000;stroke-width:2.60000014;stroke-linecap:square;stroke-linejoin:bevel;stroke-miterlimit:4;stroke-dasharray:none;stroke-dashoffset:0;stroke-opacity:0.55298235;paint-order:normal"
       d="m 154.50481,113.60528 c -0.23841,-0.69058 -0.43356,-1.30953 -0.43356,-1.37542 0,-0.0658 0.50452,-0.30101 1.12118,-0.52213 1.55122,-0.55651 2.15793,-0.88951 3.733,-2.04903 l 1.36607,-1.00568 0.15053,0.73735 c 0.12288,0.60319 0.37177,1.26271 0.76534,2.03021 0.0262,0.0514 -0.0196,0.0932 -0.10183,0.0932 -0.12385,0 -2.63304,1.35583 -5.54174,2.99456 l -0.62535,0.3523 z"
       id="path2179"
       inkscape:connector-curvature="0" />
    <ellipse
       style="opacity:1;fill:#b2b3b3;fill-opacity:1;stroke:#000000;stroke-width:2.60000014;stroke-linecap:square;stroke-linejoin:bevel;stroke-miterlimit:4;stroke-dasharray:none;stroke-dashoffset:0;stroke-opacity:0.55298235;paint-order:normal"
       id="path2201"
       cx="62.515919"
       cy="74.769073"
       rx="1.0570693"
       ry="8.8032675" />
    <path
       style="opacity:1;fill:#1b151a;fill-opacity:1;stroke:#000000;stroke-width:2.5999999;stroke-linecap:square;stroke-linejoin:bevel;stroke-miterlimit:4;stroke-dasharray:none;stroke-dashoffset:0;stroke-opacity:0.55298235;paint-order:normal"
       d="m 75.911115,67.978827 c -0.390732,0.3319 -13.207578,-2.419254 -13.701504,-1.52843 -0.578789,1.04354 -9.635833,1.15669 -10.417122,1.58544 -0.666833,0.36592 -1.574694,1.15194 -2.017365,1.74665 -1.95113,2.62113 -3.264676,8.12833 -2.633457,11.0402 0.216134,0.99719 0.101336,2.14009 -0.380107,3.78222 -0.379544,1.29424 -0.9634,4.6051 -1.297759,7.35728 -1.898479,15.627653 -0.358126,28.860743 4.924038,42.302973 0.856507,2.17981 1.63973,4.89022 1.740429,6.02332 0.136828,1.54032 0.341727,2.07804 0.811739,2.13131 0.35399,0.0401 1.059277,0.76633 1.614592,1.66275 1.346836,2.17423 5.93813,8.45605 6.99748,9.57399 2.714061,2.86421 0.562927,-2.24684 -4.057959,-9.64171 -3.473737,-5.55912 -4.25762,-7.17947 -5.834812,-12.06122 -2.258685,-6.99102 -2.429439,-8.63636 -0.878145,-8.46072 0.9236,0.10468 1.092004,-0.9394 0.670187,-4.15392 -0.170606,-1.30053 -0.279432,-2.77363 -0.241591,-3.27361 0.0377,-0.49985 -0.04895,-1.37671 -0.192391,-1.94838 -0.143681,-0.57173 -0.192635,-1.68951 -0.109168,-2.48406 0.08347,-0.79451 -0.02546,-2.08833 -0.24208,-2.87516 -0.216623,-0.78692 -0.312795,-1.6404 -0.213686,-1.89682 0.09889,-0.2563 0.562609,0.95126 1.030345,2.68355 0.635331,2.35302 0.754878,3.55432 0.472729,4.74952 -0.262225,1.11078 -0.192391,2.14256 0.228128,3.3746 0.333257,0.97611 0.731012,3.00985 0.883849,4.51957 0.152737,1.50962 0.405979,2.59306 0.562486,2.40754 0.156655,-0.1854 0.240612,-0.68924 0.187006,-1.11937 -0.128505,-1.03099 -0.11749,-1.04476 0.660837,-0.81006 0.36826,0.11129 2.096231,0.30563 3.839793,0.43233 l 3.170097,0.2304 0.278845,0.97258 0.278893,0.97257 -3.960784,0.12963 c -2.178402,0.0714 -3.992508,0.21841 -4.031353,0.32642 -0.03721,0.10884 0.342388,1.3085 0.847108,2.66748 l 0.917677,2.47098 3.920372,0.25295 c 2.156225,0.13917 3.915869,0.28551 3.910362,0.32525 -0.0049,0.0401 0.129974,0.48102 0.301339,0.98049 0.310127,0.90472 0.297839,0.90689 -3.226125,0.57211 -1.945573,-0.18466 -3.685219,-0.27705 -3.865861,-0.20496 -0.180642,0.0722 0.216623,1.33904 0.882526,2.81559 l 1.210914,2.68463 3.583517,0.18099 3.583541,0.181 0.483081,1.08607 0.483059,1.08615 -2.46586,-0.17048 c -1.356211,-0.0937 -3.214964,-0.45923 -4.130559,-0.81211 l -1.664746,-0.6416 0.766211,1.77945 c 0.4214,0.97868 1.369991,2.46587 2.108004,3.30477 l 1.341842,1.52527 3.200302,0.0687 c 2.761471,0.0594 3.229135,0.15457 3.411345,0.69391 0.175254,0.51912 -0.07074,0.6355 -1.453683,0.68703 -0.915596,0.034 -2.715453,-0.23186 -3.999725,-0.59077 -1.284296,-0.35883 -2.657591,-0.61305 -3.051895,-0.5645 -0.575436,0.0709 -0.76183,-0.13354 -0.944529,-1.03488 -0.125078,-0.61765 -0.637509,-2.03881 -1.138436,-3.15819 -0.500902,-1.11936 -1.63951,-4.08335 -2.530236,-6.5867 -2.13329,-5.99563 -3.616244,-9.53958 -3.801267,-9.08443 -0.157144,0.3874 4.251281,12.86489 5.641612,15.96688 0.445975,0.99504 0.966876,2.41659 1.157627,3.15887 0.190677,0.74234 0.539748,1.42407 0.77561,1.51496 0.23596,0.091 0.623215,0.82967 0.860767,1.64172 0.237429,0.81207 0.771865,1.85898 1.18744,2.32658 0.41555,0.46759 0.846398,1.39117 0.957451,2.05235 0.111127,0.66123 0.454224,1.2995 0.762613,1.41837 0.308389,0.11887 0.540849,0.5452 0.516568,0.94739 -0.02448,0.4022 0.09277,0.78412 0.260413,0.84869 0.167425,0.0646 0.231799,0.30609 0.142703,0.53647 -0.08885,0.23039 0.361822,1.24935 1.00178,2.26414 0.639959,1.01482 1.11704,1.95029 1.06023,2.07869 -0.05725,0.12841 -1.975116,0.17781 -4.26293,0.11006 -3.744406,-0.11128 -4.538839,-0.25686 -7.958824,-1.45806 -5.347788,-1.87821 -7.831175,-3.74121 -13.496236,-10.12382 -2.387779,-2.69025 -4.591465,-4.98775 -4.897088,-5.10555 -1.064295,-0.41018 -3.648896,-3.63603 1.405508,-3.75267 4.686706,-0.10811 7.270768,3.39064 9.17615,2.85581 0.744328,-0.20887 2.184324,-1.08666 1.94545,-2.51383 -0.136337,-0.81427 -2.470854,-2.08139 -2.548668,-2.11138 -0.184313,-0.0712 -0.982736,-2.09679 -4.963421,4.0987 -0.696744,0.0345 -7.538084,-3.02377 -7.657582,-2.71422 -0.184069,0.47674 -2.432964,-7.71785 -4.177335,-15.22125 -0.937111,-4.03096 -1.650524,-10.57735 -1.833027,-14.77783 -0.153227,-3.52595 -0.936058,-3.65905 0.972016,-15.57151 1.770047,-11.050403 2.622736,-11.743773 3.709697,-15.025233 l 2.484244,-6.56579 8.161887,-10.197094 c 1.938695,-2.408956 12.483955,-6.846369 12.424598,-6.51601 -0.140989,0.786264 9.777923,2.156864 11.80121,1.677479 1.835232,-0.434871 12.457253,7.175775 13.892084,7.271456 0.803685,0.05356 4.651043,8.453339 3.982666,9.021089 z m -32.042814,1.13871 c -2.310113,0.70765 -3.903386,2.94873 -2.912204,4.09629 0.675767,0.78233 2.101689,0.54112 3.603025,-0.60948 1.013921,-0.77707 1.949245,-2.50329 1.681978,-3.10428 -0.252776,-0.56824 -1.244472,-0.72815 -2.372799,-0.38253 z m -7.835018,17.27005 c -2.200528,-0.0391 -2.240744,-0.022 -2.566194,1.1401 -0.441447,1.57551 -2.348028,11.853223 -2.242751,12.089913 0.145884,0.32779 5.292787,0.0196 5.585363,-0.33369 0.154696,-0.1871 0.613106,-2.00439 1.018523,-4.03798 0.405367,-2.033643 0.579303,-3.450053 0.386422,-3.147553 -0.19288,0.30252 -0.618026,1.970003 -0.945018,3.705473 -0.326893,1.73545 -0.760703,3.22626 -0.96406,3.31291 -0.574114,0.24471 -4.401473,0.20399 -4.51348,-0.0479 -0.115288,-0.25911 1.881711,-10.942363 2.199157,-11.764753 0.147353,-0.3819 0.904385,-0.51896 2.49007,-0.45072 1.253063,0.0538 2.307102,0.16289 2.342398,0.24214 0.03549,0.0792 -0.08934,0.98538 -0.277009,2.01353 -0.344223,1.88631 -0.314802,2.75933 0.06022,1.78774 0.111861,-0.28978 0.329757,-1.32821 0.484527,-2.30765 0.325768,-2.06321 0.214421,-2.14341 -3.058186,-2.20165 z m 8.201932,37.237703 c -0.915621,0.13868 -2.319684,0.19958 -3.12009,0.13501 -1.720382,-0.13892 -10.510526,0.49532 -10.606551,0.76506 -0.03598,0.10248 0.193371,0.93148 0.510694,1.84226 l 0.577026,1.65588 1.878971,-0.0147 c 2.876956,-0.022 12.363332,-0.92932 12.44511,-1.18922 0.184069,-0.58533 0.308732,-3.31932 0.153717,-3.37903 -0.09571,-0.0367 -0.92333,0.0465 -1.838975,0.18491 z"
       id="path2167-7"
       inkscape:connector-curvature="0"
       sodipodi:nodetypes="ccccccccccccscccccccscccccccccccccccccccccccccccscccccccccccccccscccscsscccccscccscscccccccccccccccccccccccccscccscccccccccsc" />
    <path
       style="opacity:1;fill:#00040a;fill-opacity:1;stroke:#000000;stroke-width:2.60000014;stroke-linecap:square;stroke-linejoin:bevel;stroke-miterlimit:4;stroke-dasharray:none;stroke-dashoffset:0;stroke-opacity:0.55298235;paint-order:normal"
       d="M 42.573259,201.45313 C 35.890875,198.70812 26.668145,190.73967 20.456996,182.34482 9.4395213,167.45371 2.6871805,137.5883 7.9033048,126.82013 9.5644523,123.39084 43.303831,104.07482 47.522263,104.10586 c 2.419111,0.0195 -3.47354,-2.07652 0,0 3.964702,2.37019 16.77298,6.38746 20.373776,11.19903 5.625093,7.51658 16.41224,30.51951 18.756177,42.01422 2.716018,13.31921 3.763742,18.22874 -1.274213,23.26341 -2.894724,2.89291 -37.905232,22.88327 -42.804744,20.87061 z m 1.133419,-17.4144 c 2.346682,-1.9733 3.716844,-5.78612 3.697189,-10.28813 -0.02888,-6.55006 -3.678146,-18.09481 -7.496424,-23.71383 -2.641192,-3.88681 -8.617922,-9.42691 -11.734438,-10.87707 -4.80547,-2.23615 -7.513069,-1.1421 -10.06274,4.0658 -1.261459,2.57669 -1.320768,3.02009 -1.079691,8.06948 0.311718,6.5292 1.881468,12.20308 5.353784,19.35133 4.305987,8.86451 11.094676,14.60935 17.277603,14.62104 2.020792,0.007 2.894849,-0.26161 4.044717,-1.22862 z"
       id="path2125"
       inkscape:connector-curvature="0"
       sodipodi:nodetypes="csscscsccccccccccc" />
    <path
       style="opacity:1;fill:#1b151a;fill-opacity:1;stroke:#000000;stroke-width:2.60000014;stroke-linecap:square;stroke-linejoin:bevel;stroke-miterlimit:4;stroke-dasharray:none;stroke-dashoffset:0;stroke-opacity:0.55298235;paint-order:normal"
       d="m 85.378003,180.58232 c -5.206577,7.22068 27.850817,12.56127 33.040137,4.02901 3.72397,-1.731 8.64245,-7.31551 7.83561,-8.313 0.72063,-0.85135 1.54938,-2.40372 1.84159,-3.44966 1.28791,-4.60984 0.17427,-12.82806 -2.23248,-16.475 -0.82419,-1.24894 -1.27159,-2.87139 -1.48065,-5.36918 -0.16473,-1.96866 -1.11636,-6.80093 -2.11458,-10.73829 -5.6682,-22.35724 -14.78406,-39.63077 -29.141133,-55.219153 -2.328083,-2.5278 -4.83651,-5.81946 -5.574274,-7.31492 -1.003006,-2.03298 -1.568403,-2.65995 -2.241042,-2.48517 -0.506651,0.13159 -1.85797,-0.48936 -3.09385,-1.42194 -2.997431,-2.26193 -12.617405,-8.428582 -14.661575,-9.398381 -5.237246,-2.484753 0.417311,3.367111 10.666986,11.039301 7.705168,5.76753 9.637596,7.56906 14.38386,13.40992 6.797082,8.364463 7.902008,10.523083 5.682046,11.100153 -1.321671,0.34359 -1.000066,1.85904 1.279676,6.02993 0.922316,1.68746 1.851106,3.64334 2.063986,4.34652 0.21295,0.70303 0.79568,1.85569 1.29516,2.56133 0.49943,0.70575 1.15846,2.20747 1.4645,3.33725 0.30602,1.12983 1.1401,2.84065 1.85352,3.80194 0.71341,0.96131 1.2971,2.07705 1.2971,2.47957 0,0.40236 -1.27488,-1.00368 -2.83305,-3.12473 -2.1165,-2.88106 -2.91624,-4.45985 -3.16197,-6.24186 -0.22838,-1.65613 -0.87012,-3.02941 -2.098996,-4.49161 -0.973533,-1.15847 -2.59532,-3.72837 -3.603928,-5.71106 -1.008608,-1.98265 -1.92908,-3.32992 -2.045465,-2.99398 -0.116515,0.33611 0.03497,1.06869 0.336093,1.62827 0.722032,1.34122 0.713956,1.36595 -0.477353,1.45508 -0.563831,0.0421 -3.035959,0.68647 -5.493645,1.43174 l -4.468516,1.3549 -0.897119,-1.18232 -0.897138,-1.18225 5.362008,-2.26367 c 2.949092,-1.24491 5.358705,-2.4012 5.354716,-2.56945 -0.0073,-0.16852 -1.162011,-1.60794 -2.57332,-3.19933 L 87.47886,92.548707 81.969672,94.26801 c -3.030039,0.94568 -5.52023,1.67239 -5.533713,1.61516 -0.0147,-0.0575 -0.432906,-0.58884 -0.932071,-1.1812 -0.90412,-1.073083 -0.888402,-1.082523 4.120546,-2.481203 2.765464,-0.77223 5.199531,-1.56248 5.409051,-1.75604 0.209527,-0.19396 -1.00557,-1.716 -2.700229,-3.38311 l -3.081195,-3.03103 -5.009194,1.64025 -5.00922,1.64028 -1.2372,-1.22987 -1.237201,-1.22991 3.471242,-1.06585 c 1.909146,-0.58619 4.65114,-1.06585 6.093315,-1.06585 h 2.622125 l -1.992353,-2.02826 c -1.095772,-1.11555 -3.18356,-2.64833 -4.639464,-3.4061 l -2.647091,-1.37772 -4.424459,1.59156 c -3.817812,1.37322 -4.509417,1.48952 -5.044636,0.84849 -0.515197,-0.61709 -0.239143,-0.9058 1.629523,-1.70458 1.237349,-0.52889 3.845913,-1.11357 5.796775,-1.29943 1.95086,-0.18613 3.968321,-0.56203 4.483301,-0.83606 0.751526,-0.3998 1.115156,-0.21915 1.842791,0.91682 0.498575,0.77817 1.953165,2.45051 3.232468,3.71643 1.279251,1.26594 4.409154,4.71693 6.955377,7.66891 6.098309,7.07019 10.007301,11.132313 10.020124,10.412873 0.0098,-0.61225 -12.638039,-15.342363 -16.186115,-18.849363 -1.13814,-1.12494 -2.604717,-2.79324 -3.259144,-3.70725 -0.654395,-0.91401 -1.493771,-1.66188 -1.865289,-1.66188 -0.371511,0 -1.293622,-0.80556 -2.049111,-1.79021 -0.755437,-0.98469 -2.042233,-2.13404 -2.859506,-2.55416 -0.817247,-0.42015 -1.896813,-1.45537 -2.399037,-2.30048 -0.502224,-0.845164 -1.31056,-1.536677 -1.796311,-1.536677 -0.485751,0 -1.030149,-0.460257 -1.209714,-1.022678 -0.179663,-0.56247 -0.542367,-1.022703 -0.806231,-1.022703 -0.263767,0 -0.47973,-0.296216 -0.47973,-0.657907 0,-0.361838 -1.157357,-1.516836 -2.571897,-2.56659 -1.414564,-1.049828 -2.563844,-2.076958 -2.553931,-2.282385 0.0098,-0.20545 2.613974,-1.283527 5.786836,-2.395651 5.192944,-1.82012 6.359236,-2.039683 11.684187,-2.19947 8.32652,-0.249916 12.717593,0.987973 23.863182,6.726744 4.697787,2.418886 8.935287,4.397962 9.416677,4.397962 1.67638,0 6.92751,3.047175 0.059,5.868845 -6.36881,2.61641 -11.763633,-0.80405 -14.093056,0.93049 -0.91002,0.67757 -2.419846,2.63564 -1.336975,4.46023 0.617804,1.041 4.489441,1.54304 4.612024,1.54304 0.290422,0 2.4572,2.3479 4.636137,-8.21582 0.93703,-0.41418 11.93598,0.16216 11.93598,-0.32425 0,-0.74845 7.42072,9.26597 13.78377,18.60156 3.41835,5.01527 7.86133,13.586063 10.33473,19.230453 2.07626,4.738 3.22008,4.50756 6.9088,21.79262 3.42173,16.03419 2.61956,17.43091 2.86597,22.488 l 0.0688,10.28155 -5.79391,18.23476 c 0.28382,4.31338 -10.81304,15.93215 -13.58688,15.44944 -0.95755,2.52151 -20.28159,7.1126 -21.68737,3.26422 -2.28613,1.56098 -16.259614,-2.58579 -18.277594,-1.96083 -1.130283,0.35002 -10.851171,-9.10275 -10.235278,-10.23071 z m 51.168197,-9.93617 c 2.79291,-2.18389 3.79135,-6.08589 1.82495,-7.13207 -1.34061,-0.71323 -3.16806,0.36748 -4.61758,2.73078 -0.97892,1.59598 -1.34774,4.44776 -0.66319,5.12829 0.64738,0.6435 2.09171,0.33968 3.45582,-0.727 z m 1.60226,-27.72883 c 3.03795,-1.10545 3.08364,-1.15104 2.91512,-2.90976 -0.22862,-2.38573 -3.05415,-17.43581 -3.32377,-17.70383 -0.37335,-0.37115 -7.26773,2.76021 -7.48157,3.39801 -0.11308,0.3375 0.2203,3.06219 0.74066,6.05495 0.52056,2.99273 1.03174,5.02008 1.13606,4.50509 0.10428,-0.51503 -0.19533,-3.01783 -0.66546,-5.56182 -0.47031,-2.54387 -0.66451,-4.80979 -0.43156,-5.03533 0.65771,-0.63672 5.92692,-2.59728 6.21385,-2.31197 0.29524,0.2933 3.21141,15.94538 3.21141,17.23649 0,0.5996 -0.96533,1.1856 -3.17561,1.92759 -1.74659,0.58639 -3.24952,0.99262 -3.33987,0.90281 -0.0906,-0.0898 -0.399,-1.39374 -0.68592,-2.89768 -0.52636,-2.7592 -1.02878,-3.93683 -1.02878,-2.41146 0,0.45493 0.25082,1.98889 0.55703,3.40897 0.64532,2.99121 0.84045,3.04215 5.35841,1.39794 z m -30.95465,-46.5702 c 1.18203,-0.6719 3.07503,-1.49443 4.20666,-1.8278 2.43228,-0.716493 14.14901,-6.213043 14.1379,-6.632293 -0.005,-0.15898 -0.75803,-1.17114 -1.67524,-2.24868 l -1.66759,-1.95907 -2.56842,1.01009 c -3.93256,1.5466 -16.45972,7.78217 -16.43431,8.18043 0.0572,0.89696 1.33354,4.698923 1.5775,4.698923 0.15079,0 1.24147,-0.5497 2.4235,-1.2216 z"
       id="path2167"
       inkscape:connector-curvature="0"
       sodipodi:nodetypes="ccccccccccccscccccccscccccccccccccccccccccccccccscccccccccccccccscccscsscccccscccscscccccccccccccccccccccccccscccscccccccccsc" />
    <path
       style="opacity:1;fill:#ed0000;fill-opacity:0.36683415;stroke:none;stroke-width:2.60000014;stroke-linecap:square;stroke-linejoin:bevel;stroke-miterlimit:4;stroke-dasharray:none;stroke-dashoffset:0;stroke-opacity:0.55298235;paint-order:normal"
       d="m 77.067466,185.23347 c 0.812941,-1.94605 1.078519,-2.6709 1.457699,-3.97854 2.287321,-7.88796 0.957594,-20.07822 -3.686643,-33.79752 -1.656617,-4.89366 -3.038264,-8.22863 -5.386929,-13.00264 -2.235971,-4.54499 -4.315679,-7.86629 -7.165956,-11.44426 -1.841177,-2.31119 -6.774761,-7.29542 -8.870552,-8.96163 -2.353119,-1.87067 -5.708239,-4.04131 -8.038594,-5.20053 -1.995972,-0.99289 -5.475118,-2.29993 -6.122027,-2.29993 -0.666075,0 -0.200714,-0.36453 0.90321,-0.70731 1.698574,-0.52744 4.935052,-0.78881 6.748155,-0.54491 6.194332,0.83306 13.049159,5.57385 19.248901,13.31268 1.779791,2.2216 5.04826,7.06295 6.596885,9.77167 10.364525,18.12804 14.624421,39.51001 10.057382,50.48142 -0.748638,1.7984 -1.767847,3.30134 -3.137785,4.62696 -1.184018,1.14576 -2.808227,2.23398 -2.603746,1.74454 z"
       id="path2149-3"
       inkscape:connector-curvature="0" />
    <path
       style="opacity:1;fill:#00a0e4;fill-opacity:0.30150757;stroke:none;stroke-width:2.60000014;stroke-linecap:square;stroke-linejoin:bevel;stroke-miterlimit:4;stroke-dasharray:none;stroke-dashoffset:0;stroke-opacity:0.55298235;paint-order:normal"
       d="m 64.918972,191.30402 c 0.812938,-1.94608 1.078516,-2.6709 1.457695,-3.97857 2.287295,-7.88795 0.957594,-20.07822 -3.686641,-33.79751 -1.65662,-4.89367 -3.038262,-8.22864 -5.386927,-13.00265 -2.235971,-4.54498 -4.31568,-7.86629 -7.165957,-11.44426 -1.841177,-2.31119 -6.774761,-7.29542 -8.870552,-8.96163 -2.353119,-1.87067 -5.708239,-4.04131 -8.038594,-5.20053 -1.995997,-0.99289 -5.475118,-2.29992 -6.122027,-2.29992 -0.666075,0 -0.200713,-0.36453 0.90321,-0.70731 1.698574,-0.52745 4.935028,-0.78881 6.748155,-0.54492 6.194332,0.83306 13.049159,5.57388 19.248901,13.31271 1.779789,2.22158 5.04826,7.06295 6.596861,9.77164 10.364547,18.12805 14.624443,39.51004 10.057403,50.48144 -0.748637,1.79841 -1.76784,3.30132 -3.137811,4.62695 -1.183985,1.14575 -2.808198,2.234 -2.603716,1.74456 z"
       id="path2149-0"
       inkscape:connector-curvature="0" />
    <path
       style="opacity:1;fill:#ede46d;fill-opacity:0.2964824;stroke:none;stroke-width:2.60000014;stroke-linecap:square;stroke-linejoin:bevel;stroke-miterlimit:4;stroke-dasharray:none;stroke-dashoffset:0;stroke-opacity:0.55298235;paint-order:normal"
       d="m 54.097413,195.92309 c 0.786185,-1.88202 1.043024,-2.583 1.409742,-3.84762 2.212033,-7.62843 0.926072,-19.4176 -3.565354,-32.68549 -1.60211,-4.73265 -2.938297,-7.95788 -5.209663,-12.5748 -2.162417,-4.39547 -4.173687,-7.60749 -6.930168,-11.06772 -1.780621,-2.23513 -6.551871,-7.05536 -8.578685,-8.66675 -2.275697,-1.80912 -5.520425,-3.90834 -7.774093,-5.02943 -1.9303,-0.96022 -5.294966,-2.22423 -5.92058,-2.22423 -0.644192,0 -0.194104,-0.35254 0.873495,-0.68405 1.642668,-0.51008 4.772646,-0.76286 6.526097,-0.52698 5.990511,0.80566 12.61978,5.39046 18.615554,12.87465 1.721239,2.14853 4.882132,6.83055 6.379796,9.45014 10.023503,17.53158 14.143243,38.21001 9.726472,48.8204 -0.723988,1.73926 -1.709686,3.19273 -3.034541,4.47471 -1.14507,1.10807 -2.715824,2.16054 -2.518072,1.68717 z"
       id="path2149-5"
       inkscape:connector-curvature="0" />
  </g>
</svg>
